<svg width="28" height="28" viewBox="0 0 28 28" fill="none" xmlns="http://www.w3.org/2000/svg">
<path d="M14.0252 0.104965C6.30856 0.104965 0.0511169 6.46789 0.0511169 14.3176C0.0511169 20.5973 4.05512 25.9249 9.60743 27.8042C10.3059 27.9358 10.5622 27.4959 10.5622 27.1205C10.5622 26.7815 10.5493 25.6619 10.5433 24.4743C6.65565 25.3341 5.83531 22.7974 5.83531 22.7974C5.19965 21.1546 4.28374 20.7177 4.28374 20.7177C3.01588 19.8356 4.37932 19.8538 4.37932 19.8538C5.78256 19.9538 6.52142 21.3184 6.52142 21.3184C7.76777 23.4912 9.79048 22.8631 10.5879 22.4999C10.7133 21.5815 11.0755 20.954 11.4751 20.5994C8.37129 20.24 5.10847 19.0213 5.10847 13.5753C5.10847 12.0236 5.65436 10.7557 6.54826 9.76034C6.40318 9.40211 5.92485 7.95679 6.68365 5.99906C6.68365 5.99906 7.85708 5.61708 10.5275 7.45594C11.6422 7.14105 12.8376 6.98309 14.0252 6.97772C15.2128 6.98309 16.4092 7.14105 17.5259 7.45594C20.1931 5.61708 21.3649 5.99906 21.3649 5.99906C22.1255 7.95679 21.647 9.40211 21.5019 9.76034C22.3979 10.7557 22.9401 12.0236 22.9401 13.5753C22.9401 19.0342 19.671 20.2362 16.5593 20.5881C17.0606 21.0291 17.5072 21.8941 17.5072 23.2201C17.5072 25.1215 17.4909 26.6521 17.4909 27.1205C17.4909 27.4987 17.7425 27.9418 18.4508 27.8023C24.0001 25.9208 27.9991 20.5951 27.9991 14.3176C27.9991 6.46789 21.7426 0.104965 14.0252 0.104965Z" fill="black"/>
<path d="M5.34382 20.5113C5.31304 20.5822 5.20382 20.6032 5.10431 20.5547C5.00296 20.5083 4.94603 20.4121 4.97889 20.3412C5.00897 20.2685 5.11843 20.2485 5.21955 20.2967C5.32114 20.3433 5.37899 20.4405 5.34382 20.5113Z" fill="black"/>
<path d="M5.90986 21.1534C5.84318 21.2162 5.71291 21.1871 5.62452 21.0877C5.53311 20.9887 5.51599 20.8562 5.58356 20.7924C5.65229 20.7295 5.77863 20.759 5.87025 20.858C5.96166 20.9583 5.97951 21.0899 5.90986 21.1534Z" fill="black"/>
<path d="M6.46081 21.972C6.37523 22.0324 6.23523 21.9757 6.14867 21.8493C6.06304 21.7229 6.06304 21.5714 6.15054 21.5107C6.23728 21.4499 6.37524 21.5045 6.46291 21.6299C6.54831 21.7582 6.54831 21.9101 6.46081 21.972Z" fill="black"/>
<path d="M7.21559 22.7628C7.139 22.8487 6.9759 22.8257 6.85649 22.7084C6.73428 22.5938 6.70027 22.4312 6.7771 22.3453C6.85462 22.2591 7.01871 22.2834 7.139 22.3997C7.26027 22.514 7.29731 22.6778 7.21559 22.7628Z" fill="black"/>
<path d="M8.25696 23.222C8.22319 23.3333 8.06604 23.3839 7.90778 23.3366C7.7497 23.2879 7.64627 23.1575 7.67818 23.045C7.71108 22.933 7.86887 22.8803 8.02829 22.9308C8.18614 22.9794 8.2898 23.1088 8.25696 23.222Z" fill="black"/>
<path d="M9.40052 23.3071C9.40448 23.4243 9.27026 23.5216 9.10413 23.5235C8.93706 23.5274 8.8019 23.4326 8.80003 23.3172C8.80003 23.1989 8.93123 23.1026 9.09835 23.0998C9.26448 23.0965 9.40052 23.1907 9.40052 23.3071Z" fill="black"/>
<path d="M10.4648 23.1229C10.4847 23.2373 10.3693 23.3547 10.2042 23.3858C10.042 23.4161 9.89186 23.3455 9.87126 23.2321C9.85114 23.1149 9.96868 22.9974 10.1307 22.9671C10.2959 22.9379 10.4437 23.0066 10.4648 23.1229Z" fill="black"/>
</svg>
