<svg width="28" height="28" viewBox="0 0 28 28" fill="none" xmlns="http://www.w3.org/2000/svg">
<path fill-rule="evenodd" clip-rule="evenodd" d="M14 0C6.26801 0 0 6.26801 0 14C0 21.732 6.26801 28 14 28C21.732 28 28 21.732 28 14C28 6.26801 21.732 0 14 0ZM16.3333 13.7166L17.3564 14.4393C17.4871 14.5382 17.642 14.4577 17.6698 14.4419C17.6408 14.4528 22.4 11.2 22.4 11.2V17.2632C22.4 17.9232 21.9894 18.2 21.5277 18.2H16.3333V13.7166ZM16.3333 9.33333V12.7699L17.4539 13.5262C17.4835 13.5354 17.5475 13.5361 17.5771 13.5262L22.4 10.0414C22.4 9.62896 22.041 9.33333 21.8385 9.33333H16.3333ZM6.06667 20.3493V7.49295L15.8667 5.6V22.4L6.06667 20.3493Z" fill="black"/>
<path fill-rule="evenodd" clip-rule="evenodd" d="M11.004 16.9111C11.6704 16.9111 12.2103 16.6385 12.6244 16.0946C13.0386 15.5506 13.246 14.8338 13.2453 13.9448C13.2453 13.0797 13.0455 12.3831 12.6459 11.8543C12.247 11.3256 11.7235 11.0618 11.0767 11.0618C10.3919 11.0618 9.84188 11.3382 9.42649 11.8903C9.01109 12.4424 8.80371 13.1655 8.80371 14.0596C8.80371 14.9064 9.00856 15.5929 9.417 16.1204C9.82607 16.6473 10.3546 16.9111 11.004 16.9111ZM10.1218 12.6476C10.3362 12.305 10.6265 12.1333 10.9908 12.1333C11.3448 12.1333 11.6235 12.2998 11.8276 12.6328C12.0316 12.9663 12.1333 13.4328 12.1333 14.0323C12.1333 14.6072 12.0278 15.0569 11.8179 15.3808C11.6081 15.7047 11.3236 15.8667 10.9651 15.8667C10.6175 15.8667 10.3362 15.7008 10.1218 15.3673C9.9075 15.0343 9.80001 14.5814 9.80001 14.0084C9.80001 13.4438 9.9075 12.9902 10.1218 12.6476Z" fill="black"/>
</svg>
