<?xml version="1.0" encoding="utf-8" standalone="no"?>
<!DOCTYPE svg PUBLIC "-//W3C//DTD SVG 1.1//EN"
  "http://www.w3.org/Graphics/SVG/1.1/DTD/svg11.dtd">
<svg xmlns:xlink="http://www.w3.org/1999/xlink" width="864pt" height="288pt" viewBox="0 0 864 288" xmlns="http://www.w3.org/2000/svg" version="1.1">
 <metadata>
  <rdf:RDF xmlns:dc="http://purl.org/dc/elements/1.1/" xmlns:cc="http://creativecommons.org/ns#" xmlns:rdf="http://www.w3.org/1999/02/22-rdf-syntax-ns#">
   <cc:Work>
    <dc:type rdf:resource="http://purl.org/dc/dcmitype/StillImage"/>
    <dc:date>2022-05-16T11:07:49.152735</dc:date>
    <dc:format>image/svg+xml</dc:format>
    <dc:creator>
     <cc:Agent>
      <dc:title>Matplotlib v3.5.1, https://matplotlib.org/</dc:title>
     </cc:Agent>
    </dc:creator>
   </cc:Work>
  </rdf:RDF>
 </metadata>
 <defs>
  <style type="text/css">*{stroke-linejoin: round; stroke-linecap: butt}</style>
 </defs>
 <g id="figure_1">
  <g id="patch_1">
   <path d="M 0 288 
L 864 288 
L 864 0 
L 0 0 
z
" style="fill: #ffffff"/>
  </g>
  <g id="axes_1">
   <g id="patch_2">
    <path d="M 54.02 246.04 
L 280.26 246.04 
L 280.26 50.64 
L 54.02 50.64 
z
" style="fill: #ffffff"/>
   </g>
   <g id="matplotlib.axis_1">
    <g id="xtick_1">
     <g id="line2d_1">
      <defs>
       <path id="m6a58f3351b" d="M 0 0 
L 0 3.5 
" style="stroke: #000000; stroke-width: 0.8"/>
      </defs>
      <g>
       <use xlink:href="#m6a58f3351b" x="64.303636" y="246.04" style="stroke: #000000; stroke-width: 0.8"/>
      </g>
     </g>
     <g id="text_1">
      <!-- 0 -->
      <g transform="translate(61.122386 260.638438)scale(0.1 -0.1)">
       <defs>
        <path id="DejaVuSans-30" d="M 2034 4250 
Q 1547 4250 1301 3770 
Q 1056 3291 1056 2328 
Q 1056 1369 1301 889 
Q 1547 409 2034 409 
Q 2525 409 2770 889 
Q 3016 1369 3016 2328 
Q 3016 3291 2770 3770 
Q 2525 4250 2034 4250 
z
M 2034 4750 
Q 2819 4750 3233 4129 
Q 3647 3509 3647 2328 
Q 3647 1150 3233 529 
Q 2819 -91 2034 -91 
Q 1250 -91 836 529 
Q 422 1150 422 2328 
Q 422 3509 836 4129 
Q 1250 4750 2034 4750 
z
" transform="scale(0.015625)"/>
       </defs>
       <use xlink:href="#DejaVuSans-30"/>
      </g>
     </g>
    </g>
    <g id="xtick_2">
     <g id="line2d_2">
      <g>
       <use xlink:href="#m6a58f3351b" x="101.030909" y="246.04" style="stroke: #000000; stroke-width: 0.8"/>
      </g>
     </g>
     <g id="text_2">
      <!-- 10 -->
      <g transform="translate(94.668409 260.638438)scale(0.1 -0.1)">
       <defs>
        <path id="DejaVuSans-31" d="M 794 531 
L 1825 531 
L 1825 4091 
L 703 3866 
L 703 4441 
L 1819 4666 
L 2450 4666 
L 2450 531 
L 3481 531 
L 3481 0 
L 794 0 
L 794 531 
z
" transform="scale(0.015625)"/>
       </defs>
       <use xlink:href="#DejaVuSans-31"/>
       <use xlink:href="#DejaVuSans-30" x="63.623047"/>
      </g>
     </g>
    </g>
    <g id="xtick_3">
     <g id="line2d_3">
      <g>
       <use xlink:href="#m6a58f3351b" x="137.758182" y="246.04" style="stroke: #000000; stroke-width: 0.8"/>
      </g>
     </g>
     <g id="text_3">
      <!-- 20 -->
      <g transform="translate(131.395682 260.638438)scale(0.1 -0.1)">
       <defs>
        <path id="DejaVuSans-32" d="M 1228 531 
L 3431 531 
L 3431 0 
L 469 0 
L 469 531 
Q 828 903 1448 1529 
Q 2069 2156 2228 2338 
Q 2531 2678 2651 2914 
Q 2772 3150 2772 3378 
Q 2772 3750 2511 3984 
Q 2250 4219 1831 4219 
Q 1534 4219 1204 4116 
Q 875 4013 500 3803 
L 500 4441 
Q 881 4594 1212 4672 
Q 1544 4750 1819 4750 
Q 2544 4750 2975 4387 
Q 3406 4025 3406 3419 
Q 3406 3131 3298 2873 
Q 3191 2616 2906 2266 
Q 2828 2175 2409 1742 
Q 1991 1309 1228 531 
z
" transform="scale(0.015625)"/>
       </defs>
       <use xlink:href="#DejaVuSans-32"/>
       <use xlink:href="#DejaVuSans-30" x="63.623047"/>
      </g>
     </g>
    </g>
    <g id="xtick_4">
     <g id="line2d_4">
      <g>
       <use xlink:href="#m6a58f3351b" x="174.485455" y="246.04" style="stroke: #000000; stroke-width: 0.8"/>
      </g>
     </g>
     <g id="text_4">
      <!-- 30 -->
      <g transform="translate(168.122955 260.638438)scale(0.1 -0.1)">
       <defs>
        <path id="DejaVuSans-33" d="M 2597 2516 
Q 3050 2419 3304 2112 
Q 3559 1806 3559 1356 
Q 3559 666 3084 287 
Q 2609 -91 1734 -91 
Q 1441 -91 1130 -33 
Q 819 25 488 141 
L 488 750 
Q 750 597 1062 519 
Q 1375 441 1716 441 
Q 2309 441 2620 675 
Q 2931 909 2931 1356 
Q 2931 1769 2642 2001 
Q 2353 2234 1838 2234 
L 1294 2234 
L 1294 2753 
L 1863 2753 
Q 2328 2753 2575 2939 
Q 2822 3125 2822 3475 
Q 2822 3834 2567 4026 
Q 2313 4219 1838 4219 
Q 1578 4219 1281 4162 
Q 984 4106 628 3988 
L 628 4550 
Q 988 4650 1302 4700 
Q 1616 4750 1894 4750 
Q 2613 4750 3031 4423 
Q 3450 4097 3450 3541 
Q 3450 3153 3228 2886 
Q 3006 2619 2597 2516 
z
" transform="scale(0.015625)"/>
       </defs>
       <use xlink:href="#DejaVuSans-33"/>
       <use xlink:href="#DejaVuSans-30" x="63.623047"/>
      </g>
     </g>
    </g>
    <g id="xtick_5">
     <g id="line2d_5">
      <g>
       <use xlink:href="#m6a58f3351b" x="211.212727" y="246.04" style="stroke: #000000; stroke-width: 0.8"/>
      </g>
     </g>
     <g id="text_5">
      <!-- 40 -->
      <g transform="translate(204.850227 260.638438)scale(0.1 -0.1)">
       <defs>
        <path id="DejaVuSans-34" d="M 2419 4116 
L 825 1625 
L 2419 1625 
L 2419 4116 
z
M 2253 4666 
L 3047 4666 
L 3047 1625 
L 3713 1625 
L 3713 1100 
L 3047 1100 
L 3047 0 
L 2419 0 
L 2419 1100 
L 313 1100 
L 313 1709 
L 2253 4666 
z
" transform="scale(0.015625)"/>
       </defs>
       <use xlink:href="#DejaVuSans-34"/>
       <use xlink:href="#DejaVuSans-30" x="63.623047"/>
      </g>
     </g>
    </g>
    <g id="xtick_6">
     <g id="line2d_6">
      <g>
       <use xlink:href="#m6a58f3351b" x="247.94" y="246.04" style="stroke: #000000; stroke-width: 0.8"/>
      </g>
     </g>
     <g id="text_6">
      <!-- 50 -->
      <g transform="translate(241.5775 260.638438)scale(0.1 -0.1)">
       <defs>
        <path id="DejaVuSans-35" d="M 691 4666 
L 3169 4666 
L 3169 4134 
L 1269 4134 
L 1269 2991 
Q 1406 3038 1543 3061 
Q 1681 3084 1819 3084 
Q 2600 3084 3056 2656 
Q 3513 2228 3513 1497 
Q 3513 744 3044 326 
Q 2575 -91 1722 -91 
Q 1428 -91 1123 -41 
Q 819 9 494 109 
L 494 744 
Q 775 591 1075 516 
Q 1375 441 1709 441 
Q 2250 441 2565 725 
Q 2881 1009 2881 1497 
Q 2881 1984 2565 2268 
Q 2250 2553 1709 2553 
Q 1456 2553 1204 2497 
Q 953 2441 691 2322 
L 691 4666 
z
" transform="scale(0.015625)"/>
       </defs>
       <use xlink:href="#DejaVuSans-35"/>
       <use xlink:href="#DejaVuSans-30" x="63.623047"/>
      </g>
     </g>
    </g>
    <g id="text_7">
     <!-- Epochs -->
     <g transform="translate(149.224375 274.316562)scale(0.1 -0.1)">
      <defs>
       <path id="DejaVuSans-45" d="M 628 4666 
L 3578 4666 
L 3578 4134 
L 1259 4134 
L 1259 2753 
L 3481 2753 
L 3481 2222 
L 1259 2222 
L 1259 531 
L 3634 531 
L 3634 0 
L 628 0 
L 628 4666 
z
" transform="scale(0.015625)"/>
       <path id="DejaVuSans-70" d="M 1159 525 
L 1159 -1331 
L 581 -1331 
L 581 3500 
L 1159 3500 
L 1159 2969 
Q 1341 3281 1617 3432 
Q 1894 3584 2278 3584 
Q 2916 3584 3314 3078 
Q 3713 2572 3713 1747 
Q 3713 922 3314 415 
Q 2916 -91 2278 -91 
Q 1894 -91 1617 61 
Q 1341 213 1159 525 
z
M 3116 1747 
Q 3116 2381 2855 2742 
Q 2594 3103 2138 3103 
Q 1681 3103 1420 2742 
Q 1159 2381 1159 1747 
Q 1159 1113 1420 752 
Q 1681 391 2138 391 
Q 2594 391 2855 752 
Q 3116 1113 3116 1747 
z
" transform="scale(0.015625)"/>
       <path id="DejaVuSans-6f" d="M 1959 3097 
Q 1497 3097 1228 2736 
Q 959 2375 959 1747 
Q 959 1119 1226 758 
Q 1494 397 1959 397 
Q 2419 397 2687 759 
Q 2956 1122 2956 1747 
Q 2956 2369 2687 2733 
Q 2419 3097 1959 3097 
z
M 1959 3584 
Q 2709 3584 3137 3096 
Q 3566 2609 3566 1747 
Q 3566 888 3137 398 
Q 2709 -91 1959 -91 
Q 1206 -91 779 398 
Q 353 888 353 1747 
Q 353 2609 779 3096 
Q 1206 3584 1959 3584 
z
" transform="scale(0.015625)"/>
       <path id="DejaVuSans-63" d="M 3122 3366 
L 3122 2828 
Q 2878 2963 2633 3030 
Q 2388 3097 2138 3097 
Q 1578 3097 1268 2742 
Q 959 2388 959 1747 
Q 959 1106 1268 751 
Q 1578 397 2138 397 
Q 2388 397 2633 464 
Q 2878 531 3122 666 
L 3122 134 
Q 2881 22 2623 -34 
Q 2366 -91 2075 -91 
Q 1284 -91 818 406 
Q 353 903 353 1747 
Q 353 2603 823 3093 
Q 1294 3584 2113 3584 
Q 2378 3584 2631 3529 
Q 2884 3475 3122 3366 
z
" transform="scale(0.015625)"/>
       <path id="DejaVuSans-68" d="M 3513 2113 
L 3513 0 
L 2938 0 
L 2938 2094 
Q 2938 2591 2744 2837 
Q 2550 3084 2163 3084 
Q 1697 3084 1428 2787 
Q 1159 2491 1159 1978 
L 1159 0 
L 581 0 
L 581 4863 
L 1159 4863 
L 1159 2956 
Q 1366 3272 1645 3428 
Q 1925 3584 2291 3584 
Q 2894 3584 3203 3211 
Q 3513 2838 3513 2113 
z
" transform="scale(0.015625)"/>
       <path id="DejaVuSans-73" d="M 2834 3397 
L 2834 2853 
Q 2591 2978 2328 3040 
Q 2066 3103 1784 3103 
Q 1356 3103 1142 2972 
Q 928 2841 928 2578 
Q 928 2378 1081 2264 
Q 1234 2150 1697 2047 
L 1894 2003 
Q 2506 1872 2764 1633 
Q 3022 1394 3022 966 
Q 3022 478 2636 193 
Q 2250 -91 1575 -91 
Q 1294 -91 989 -36 
Q 684 19 347 128 
L 347 722 
Q 666 556 975 473 
Q 1284 391 1588 391 
Q 1994 391 2212 530 
Q 2431 669 2431 922 
Q 2431 1156 2273 1281 
Q 2116 1406 1581 1522 
L 1381 1569 
Q 847 1681 609 1914 
Q 372 2147 372 2553 
Q 372 3047 722 3315 
Q 1072 3584 1716 3584 
Q 2034 3584 2315 3537 
Q 2597 3491 2834 3397 
z
" transform="scale(0.015625)"/>
      </defs>
      <use xlink:href="#DejaVuSans-45"/>
      <use xlink:href="#DejaVuSans-70" x="63.183594"/>
      <use xlink:href="#DejaVuSans-6f" x="126.660156"/>
      <use xlink:href="#DejaVuSans-63" x="187.841797"/>
      <use xlink:href="#DejaVuSans-68" x="242.822266"/>
      <use xlink:href="#DejaVuSans-73" x="306.201172"/>
     </g>
    </g>
   </g>
   <g id="matplotlib.axis_2">
    <g id="ytick_1">
     <g id="line2d_7">
      <defs>
       <path id="m777cbc18d6" d="M 0 0 
L -3.5 0 
" style="stroke: #000000; stroke-width: 0.8"/>
      </defs>
      <g>
       <use xlink:href="#m777cbc18d6" x="54.02" y="245.933155" style="stroke: #000000; stroke-width: 0.8"/>
      </g>
     </g>
     <g id="text_8">
      <!-- 0.03 -->
      <g transform="translate(24.754375 249.732373)scale(0.1 -0.1)">
       <defs>
        <path id="DejaVuSans-2e" d="M 684 794 
L 1344 794 
L 1344 0 
L 684 0 
L 684 794 
z
" transform="scale(0.015625)"/>
       </defs>
       <use xlink:href="#DejaVuSans-30"/>
       <use xlink:href="#DejaVuSans-2e" x="63.623047"/>
       <use xlink:href="#DejaVuSans-30" x="95.410156"/>
       <use xlink:href="#DejaVuSans-33" x="159.033203"/>
      </g>
     </g>
    </g>
    <g id="ytick_2">
     <g id="line2d_8">
      <g>
       <use xlink:href="#m777cbc18d6" x="54.02" y="210.872326" style="stroke: #000000; stroke-width: 0.8"/>
      </g>
     </g>
     <g id="text_9">
      <!-- 0.04 -->
      <g transform="translate(24.754375 214.671545)scale(0.1 -0.1)">
       <use xlink:href="#DejaVuSans-30"/>
       <use xlink:href="#DejaVuSans-2e" x="63.623047"/>
       <use xlink:href="#DejaVuSans-30" x="95.410156"/>
       <use xlink:href="#DejaVuSans-34" x="159.033203"/>
      </g>
     </g>
    </g>
    <g id="ytick_3">
     <g id="line2d_9">
      <g>
       <use xlink:href="#m777cbc18d6" x="54.02" y="175.811497" style="stroke: #000000; stroke-width: 0.8"/>
      </g>
     </g>
     <g id="text_10">
      <!-- 0.05 -->
      <g transform="translate(24.754375 179.610716)scale(0.1 -0.1)">
       <use xlink:href="#DejaVuSans-30"/>
       <use xlink:href="#DejaVuSans-2e" x="63.623047"/>
       <use xlink:href="#DejaVuSans-30" x="95.410156"/>
       <use xlink:href="#DejaVuSans-35" x="159.033203"/>
      </g>
     </g>
    </g>
    <g id="ytick_4">
     <g id="line2d_10">
      <g>
       <use xlink:href="#m777cbc18d6" x="54.02" y="140.750668" style="stroke: #000000; stroke-width: 0.8"/>
      </g>
     </g>
     <g id="text_11">
      <!-- 0.06 -->
      <g transform="translate(24.754375 144.549887)scale(0.1 -0.1)">
       <defs>
        <path id="DejaVuSans-36" d="M 2113 2584 
Q 1688 2584 1439 2293 
Q 1191 2003 1191 1497 
Q 1191 994 1439 701 
Q 1688 409 2113 409 
Q 2538 409 2786 701 
Q 3034 994 3034 1497 
Q 3034 2003 2786 2293 
Q 2538 2584 2113 2584 
z
M 3366 4563 
L 3366 3988 
Q 3128 4100 2886 4159 
Q 2644 4219 2406 4219 
Q 1781 4219 1451 3797 
Q 1122 3375 1075 2522 
Q 1259 2794 1537 2939 
Q 1816 3084 2150 3084 
Q 2853 3084 3261 2657 
Q 3669 2231 3669 1497 
Q 3669 778 3244 343 
Q 2819 -91 2113 -91 
Q 1303 -91 875 529 
Q 447 1150 447 2328 
Q 447 3434 972 4092 
Q 1497 4750 2381 4750 
Q 2619 4750 2861 4703 
Q 3103 4656 3366 4563 
z
" transform="scale(0.015625)"/>
       </defs>
       <use xlink:href="#DejaVuSans-30"/>
       <use xlink:href="#DejaVuSans-2e" x="63.623047"/>
       <use xlink:href="#DejaVuSans-30" x="95.410156"/>
       <use xlink:href="#DejaVuSans-36" x="159.033203"/>
      </g>
     </g>
    </g>
    <g id="ytick_5">
     <g id="line2d_11">
      <g>
       <use xlink:href="#m777cbc18d6" x="54.02" y="105.689839" style="stroke: #000000; stroke-width: 0.8"/>
      </g>
     </g>
     <g id="text_12">
      <!-- 0.07 -->
      <g transform="translate(24.754375 109.489058)scale(0.1 -0.1)">
       <defs>
        <path id="DejaVuSans-37" d="M 525 4666 
L 3525 4666 
L 3525 4397 
L 1831 0 
L 1172 0 
L 2766 4134 
L 525 4134 
L 525 4666 
z
" transform="scale(0.015625)"/>
       </defs>
       <use xlink:href="#DejaVuSans-30"/>
       <use xlink:href="#DejaVuSans-2e" x="63.623047"/>
       <use xlink:href="#DejaVuSans-30" x="95.410156"/>
       <use xlink:href="#DejaVuSans-37" x="159.033203"/>
      </g>
     </g>
    </g>
    <g id="ytick_6">
     <g id="line2d_12">
      <g>
       <use xlink:href="#m777cbc18d6" x="54.02" y="70.62901" style="stroke: #000000; stroke-width: 0.8"/>
      </g>
     </g>
     <g id="text_13">
      <!-- 0.08 -->
      <g transform="translate(24.754375 74.428229)scale(0.1 -0.1)">
       <defs>
        <path id="DejaVuSans-38" d="M 2034 2216 
Q 1584 2216 1326 1975 
Q 1069 1734 1069 1313 
Q 1069 891 1326 650 
Q 1584 409 2034 409 
Q 2484 409 2743 651 
Q 3003 894 3003 1313 
Q 3003 1734 2745 1975 
Q 2488 2216 2034 2216 
z
M 1403 2484 
Q 997 2584 770 2862 
Q 544 3141 544 3541 
Q 544 4100 942 4425 
Q 1341 4750 2034 4750 
Q 2731 4750 3128 4425 
Q 3525 4100 3525 3541 
Q 3525 3141 3298 2862 
Q 3072 2584 2669 2484 
Q 3125 2378 3379 2068 
Q 3634 1759 3634 1313 
Q 3634 634 3220 271 
Q 2806 -91 2034 -91 
Q 1263 -91 848 271 
Q 434 634 434 1313 
Q 434 1759 690 2068 
Q 947 2378 1403 2484 
z
M 1172 3481 
Q 1172 3119 1398 2916 
Q 1625 2713 2034 2713 
Q 2441 2713 2670 2916 
Q 2900 3119 2900 3481 
Q 2900 3844 2670 4047 
Q 2441 4250 2034 4250 
Q 1625 4250 1398 4047 
Q 1172 3844 1172 3481 
z
" transform="scale(0.015625)"/>
       </defs>
       <use xlink:href="#DejaVuSans-30"/>
       <use xlink:href="#DejaVuSans-2e" x="63.623047"/>
       <use xlink:href="#DejaVuSans-30" x="95.410156"/>
       <use xlink:href="#DejaVuSans-38" x="159.033203"/>
      </g>
     </g>
    </g>
    <g id="text_14">
     <!-- Loss Value -->
     <g transform="translate(18.674687 174.6275)rotate(-90)scale(0.1 -0.1)">
      <defs>
       <path id="DejaVuSans-4c" d="M 628 4666 
L 1259 4666 
L 1259 531 
L 3531 531 
L 3531 0 
L 628 0 
L 628 4666 
z
" transform="scale(0.015625)"/>
       <path id="DejaVuSans-20" transform="scale(0.015625)"/>
       <path id="DejaVuSans-56" d="M 1831 0 
L 50 4666 
L 709 4666 
L 2188 738 
L 3669 4666 
L 4325 4666 
L 2547 0 
L 1831 0 
z
" transform="scale(0.015625)"/>
       <path id="DejaVuSans-61" d="M 2194 1759 
Q 1497 1759 1228 1600 
Q 959 1441 959 1056 
Q 959 750 1161 570 
Q 1363 391 1709 391 
Q 2188 391 2477 730 
Q 2766 1069 2766 1631 
L 2766 1759 
L 2194 1759 
z
M 3341 1997 
L 3341 0 
L 2766 0 
L 2766 531 
Q 2569 213 2275 61 
Q 1981 -91 1556 -91 
Q 1019 -91 701 211 
Q 384 513 384 1019 
Q 384 1609 779 1909 
Q 1175 2209 1959 2209 
L 2766 2209 
L 2766 2266 
Q 2766 2663 2505 2880 
Q 2244 3097 1772 3097 
Q 1472 3097 1187 3025 
Q 903 2953 641 2809 
L 641 3341 
Q 956 3463 1253 3523 
Q 1550 3584 1831 3584 
Q 2591 3584 2966 3190 
Q 3341 2797 3341 1997 
z
" transform="scale(0.015625)"/>
       <path id="DejaVuSans-6c" d="M 603 4863 
L 1178 4863 
L 1178 0 
L 603 0 
L 603 4863 
z
" transform="scale(0.015625)"/>
       <path id="DejaVuSans-75" d="M 544 1381 
L 544 3500 
L 1119 3500 
L 1119 1403 
Q 1119 906 1312 657 
Q 1506 409 1894 409 
Q 2359 409 2629 706 
Q 2900 1003 2900 1516 
L 2900 3500 
L 3475 3500 
L 3475 0 
L 2900 0 
L 2900 538 
Q 2691 219 2414 64 
Q 2138 -91 1772 -91 
Q 1169 -91 856 284 
Q 544 659 544 1381 
z
M 1991 3584 
L 1991 3584 
z
" transform="scale(0.015625)"/>
       <path id="DejaVuSans-65" d="M 3597 1894 
L 3597 1613 
L 953 1613 
Q 991 1019 1311 708 
Q 1631 397 2203 397 
Q 2534 397 2845 478 
Q 3156 559 3463 722 
L 3463 178 
Q 3153 47 2828 -22 
Q 2503 -91 2169 -91 
Q 1331 -91 842 396 
Q 353 884 353 1716 
Q 353 2575 817 3079 
Q 1281 3584 2069 3584 
Q 2775 3584 3186 3129 
Q 3597 2675 3597 1894 
z
M 3022 2063 
Q 3016 2534 2758 2815 
Q 2500 3097 2075 3097 
Q 1594 3097 1305 2825 
Q 1016 2553 972 2059 
L 3022 2063 
z
" transform="scale(0.015625)"/>
      </defs>
      <use xlink:href="#DejaVuSans-4c"/>
      <use xlink:href="#DejaVuSans-6f" x="53.962891"/>
      <use xlink:href="#DejaVuSans-73" x="115.144531"/>
      <use xlink:href="#DejaVuSans-73" x="167.244141"/>
      <use xlink:href="#DejaVuSans-20" x="219.34375"/>
      <use xlink:href="#DejaVuSans-56" x="251.130859"/>
      <use xlink:href="#DejaVuSans-61" x="311.789062"/>
      <use xlink:href="#DejaVuSans-6c" x="373.068359"/>
      <use xlink:href="#DejaVuSans-75" x="400.851562"/>
      <use xlink:href="#DejaVuSans-65" x="464.230469"/>
     </g>
    </g>
   </g>
   <g id="line2d_13">
    <path d="M 64.303636 82.461894 
L 67.976364 115.898506 
L 71.649091 129.056309 
L 75.321818 140.769755 
L 78.994545 149.977284 
L 82.667273 158.486222 
L 86.34 163.928005 
L 90.012727 170.05866 
L 93.685455 174.150648 
L 97.358182 177.45638 
L 101.030909 181.521997 
L 104.703636 185.166849 
L 108.376364 187.609472 
L 112.049091 189.875155 
L 115.721818 192.787484 
L 119.394545 194.575376 
L 123.067273 196.805873 
L 126.74 198.196548 
L 130.412727 200.098595 
L 134.085455 202.409862 
L 137.758182 203.098944 
L 141.430909 205.046247 
L 145.103636 206.859661 
L 148.776364 207.965185 
L 152.449091 209.897652 
L 156.121818 211.432614 
L 159.794545 213.276565 
L 163.467273 213.722983 
L 167.14 215.769042 
L 170.812727 216.908787 
L 174.485455 217.84317 
L 178.158182 219.3026 
L 181.830909 220.217405 
L 185.503636 221.609596 
L 189.176364 223.124849 
L 192.849091 224.253426 
L 196.521818 224.922772 
L 200.194545 226.267773 
L 203.867273 227.528098 
L 207.54 227.500604 
L 211.212727 229.341486 
L 214.885455 230.414017 
L 218.558182 230.877911 
L 222.230909 231.598013 
L 225.903636 232.586039 
L 229.576364 233.007248 
L 233.249091 233.977407 
L 236.921818 234.126683 
L 240.594545 234.907114 
L 244.267273 235.167489 
L 247.94 235.894369 
L 251.612727 236.466357 
L 255.285455 236.360771 
L 258.958182 236.839868 
L 262.630909 236.714324 
L 266.303636 237.158182 
L 269.976364 237.131602 
" clip-path="url(#p4827146849)" style="fill: none; stroke: #1f77b4; stroke-width: 1.5; stroke-linecap: square"/>
   </g>
   <g id="line2d_14">
    <path d="M 64.303636 59.521818 
L 67.976364 89.750475 
L 71.649091 103.635838 
L 75.321818 114.33861 
L 78.994545 125.073721 
L 82.667273 132.543199 
L 86.34 139.703924 
L 90.012727 145.822641 
L 93.685455 150.527225 
L 97.358182 154.98665 
L 101.030909 158.606307 
L 104.703636 162.030686 
L 108.376364 163.319341 
L 112.049091 167.510516 
L 115.721818 169.477424 
L 119.394545 172.688515 
L 123.067273 174.955791 
L 126.74 176.086354 
L 130.412727 178.150568 
L 134.085455 179.644597 
L 137.758182 181.734581 
L 141.430909 182.753888 
L 145.103636 185.463952 
L 148.776364 186.308148 
L 152.449091 188.532741 
L 156.121818 189.579202 
L 159.794545 190.823279 
L 163.467273 192.728356 
L 167.14 193.337438 
L 170.812727 195.255041 
L 174.485455 195.505802 
L 178.158182 196.788436 
L 181.830909 198.483842 
L 185.503636 198.913973 
L 189.176364 200.52648 
L 192.849091 202.265405 
L 196.521818 202.364971 
L 200.194545 203.300856 
L 203.867273 204.244226 
L 207.54 204.77835 
L 211.212727 206.115997 
L 214.885455 207.718394 
L 218.558182 207.851488 
L 222.230909 208.57206 
L 225.903636 209.393516 
L 229.576364 210.090957 
L 233.249091 211.128524 
L 236.921818 210.547315 
L 240.594545 211.85513 
L 244.267273 212.075969 
L 247.94 212.751832 
L 251.612727 212.052667 
L 255.285455 212.857654 
L 258.958182 213.911051 
L 262.630909 213.558961 
L 266.303636 213.996719 
L 269.976364 213.476375 
" clip-path="url(#p4827146849)" style="fill: none; stroke: #ff7f0e; stroke-width: 1.5; stroke-linecap: square"/>
   </g>
   <g id="line2d_15">
    <path d="M 64.303636 76.165127 
L 67.976364 105.821025 
L 71.649091 119.503626 
L 75.321818 130.222777 
L 78.994545 138.924799 
L 82.667273 146.022425 
L 86.34 151.769565 
L 90.012727 156.82599 
L 93.685455 161.343302 
L 97.358182 164.453391 
L 101.030909 167.659204 
L 104.703636 170.184335 
L 108.376364 172.435899 
L 112.049091 175.146315 
L 115.721818 177.083888 
L 119.394545 178.928714 
L 123.067273 180.522883 
L 126.74 182.443385 
L 130.412727 184.244547 
L 134.085455 186.588571 
L 137.758182 187.447004 
L 141.430909 187.109177 
L 145.103636 189.60808 
L 148.776364 191.960555 
L 152.449091 192.103457 
L 156.121818 193.483175 
L 159.794545 194.897491 
L 163.467273 196.008867 
L 167.14 197.67866 
L 170.812727 198.420639 
L 174.485455 199.883687 
L 178.158182 200.030076 
L 181.830909 201.383972 
L 185.503636 202.392229 
L 189.176364 203.893403 
L 192.849091 204.886744 
L 196.521818 205.12963 
L 200.194545 206.657278 
L 203.867273 206.769043 
L 207.54 207.736275 
L 211.212727 208.290369 
L 214.885455 208.639547 
L 218.558182 209.975601 
L 222.230909 210.894298 
L 225.903636 211.310989 
L 229.576364 211.823091 
L 233.249091 212.762438 
L 236.921818 212.955809 
L 240.594545 213.26895 
L 244.267273 213.197271 
L 247.94 213.540518 
L 251.612727 214.416362 
L 255.285455 214.672831 
L 258.958182 214.309364 
L 262.630909 215.892993 
L 266.303636 215.259591 
L 269.976364 215.646032 
" clip-path="url(#p4827146849)" style="fill: none; stroke: #2ca02c; stroke-width: 1.5; stroke-linecap: square"/>
   </g>
   <g id="line2d_16">
    <path d="M 64.303636 71.610851 
L 67.976364 105.636627 
L 71.649091 122.871032 
L 75.321818 133.904304 
L 78.994545 142.44442 
L 82.667273 150.916696 
L 86.34 156.072334 
L 90.012727 161.700852 
L 93.685455 165.463085 
L 97.358182 168.617542 
L 101.030909 171.499673 
L 104.703636 175.114341 
L 108.376364 177.153922 
L 112.049091 180.132954 
L 115.721818 182.935804 
L 119.394545 184.454728 
L 123.067273 187.144638 
L 126.74 188.640195 
L 130.412727 190.760298 
L 134.085455 191.85779 
L 137.758182 193.400171 
L 141.430909 195.186483 
L 145.103636 196.571163 
L 148.776364 198.311839 
L 152.449091 198.960575 
L 156.121818 200.10237 
L 159.794545 202.07146 
L 163.467273 202.517199 
L 167.14 204.901843 
L 170.812727 205.825516 
L 174.485455 206.668576 
L 178.158182 207.665196 
L 181.830909 209.035314 
L 185.503636 210.290676 
L 189.176364 211.594638 
L 192.849091 212.9556 
L 196.521818 212.943022 
L 200.194545 214.416571 
L 203.867273 215.580713 
L 207.54 216.222056 
L 211.212727 216.707723 
L 214.885455 217.313161 
L 218.558182 218.566877 
L 222.230909 218.76926 
L 225.903636 219.650445 
L 229.576364 220.506292 
L 233.249091 220.883825 
L 236.921818 221.344846 
L 240.594545 221.890842 
L 244.267273 221.964507 
L 247.94 223.093776 
L 251.612727 222.422824 
L 255.285455 223.949806 
L 258.958182 223.305106 
L 262.630909 223.488916 
L 266.303636 223.741101 
L 269.976364 224.050547 
" clip-path="url(#p4827146849)" style="fill: none; stroke: #d62728; stroke-width: 1.5; stroke-linecap: square"/>
   </g>
   <g id="line2d_17">
    <path d="M 64.303636 80.548667 
L 67.976364 113.216289 
L 71.649091 128.90783 
L 75.321818 137.761544 
L 78.994545 148.50013 
L 82.667273 156.64457 
L 86.34 162.617381 
L 90.012727 167.287784 
L 93.685455 171.791382 
L 97.358182 175.545634 
L 101.030909 178.151025 
L 104.703636 181.969774 
L 108.376364 184.372364 
L 112.049091 187.275642 
L 115.721818 189.904922 
L 119.394545 190.986609 
L 123.067273 193.645577 
L 126.74 195.690762 
L 130.412727 197.38076 
L 134.085455 198.345341 
L 137.758182 200.389781 
L 141.430909 202.165827 
L 145.103636 203.240239 
L 148.776364 204.99126 
L 152.449091 206.093675 
L 156.121818 207.875155 
L 159.794545 209.597558 
L 163.467273 210.67073 
L 167.14 211.762357 
L 170.812727 213.233437 
L 174.485455 214.011256 
L 178.158182 215.659929 
L 181.830909 216.695302 
L 185.503636 218.220952 
L 189.176364 218.895784 
L 192.849091 219.89559 
L 196.521818 221.150809 
L 200.194545 222.016582 
L 203.867273 222.667616 
L 207.54 224.067931 
L 211.212727 225.177334 
L 214.885455 226.088782 
L 218.558182 226.40101 
L 222.230909 227.364716 
L 225.903636 227.749328 
L 229.576364 228.15429 
L 233.249091 229.687607 
L 236.921818 229.758829 
L 240.594545 230.618908 
L 244.267273 230.893571 
L 247.94 230.742493 
L 251.612727 231.133858 
L 255.285455 231.831142 
L 258.958182 232.282993 
L 262.630909 232.00735 
L 266.303636 231.943925 
L 269.976364 233.134242 
" clip-path="url(#p4827146849)" style="fill: none; stroke: #9467bd; stroke-width: 1.5; stroke-linecap: square"/>
   </g>
   <g id="patch_3">
    <path d="M 54.02 246.04 
L 54.02 50.64 
" style="fill: none; stroke: #000000; stroke-width: 0.8; stroke-linejoin: miter; stroke-linecap: square"/>
   </g>
   <g id="patch_4">
    <path d="M 280.26 246.04 
L 280.26 50.64 
" style="fill: none; stroke: #000000; stroke-width: 0.8; stroke-linejoin: miter; stroke-linecap: square"/>
   </g>
   <g id="patch_5">
    <path d="M 54.02 246.04 
L 280.26 246.04 
" style="fill: none; stroke: #000000; stroke-width: 0.8; stroke-linejoin: miter; stroke-linecap: square"/>
   </g>
   <g id="patch_6">
    <path d="M 54.02 50.64 
L 280.26 50.64 
" style="fill: none; stroke: #000000; stroke-width: 0.8; stroke-linejoin: miter; stroke-linecap: square"/>
   </g>
   <g id="text_15">
    <!-- Localization Loss -->
    <g transform="translate(116.534687 44.64)scale(0.12 -0.12)">
     <defs>
      <path id="DejaVuSans-69" d="M 603 3500 
L 1178 3500 
L 1178 0 
L 603 0 
L 603 3500 
z
M 603 4863 
L 1178 4863 
L 1178 4134 
L 603 4134 
L 603 4863 
z
" transform="scale(0.015625)"/>
      <path id="DejaVuSans-7a" d="M 353 3500 
L 3084 3500 
L 3084 2975 
L 922 459 
L 3084 459 
L 3084 0 
L 275 0 
L 275 525 
L 2438 3041 
L 353 3041 
L 353 3500 
z
" transform="scale(0.015625)"/>
      <path id="DejaVuSans-74" d="M 1172 4494 
L 1172 3500 
L 2356 3500 
L 2356 3053 
L 1172 3053 
L 1172 1153 
Q 1172 725 1289 603 
Q 1406 481 1766 481 
L 2356 481 
L 2356 0 
L 1766 0 
Q 1100 0 847 248 
Q 594 497 594 1153 
L 594 3053 
L 172 3053 
L 172 3500 
L 594 3500 
L 594 4494 
L 1172 4494 
z
" transform="scale(0.015625)"/>
      <path id="DejaVuSans-6e" d="M 3513 2113 
L 3513 0 
L 2938 0 
L 2938 2094 
Q 2938 2591 2744 2837 
Q 2550 3084 2163 3084 
Q 1697 3084 1428 2787 
Q 1159 2491 1159 1978 
L 1159 0 
L 581 0 
L 581 3500 
L 1159 3500 
L 1159 2956 
Q 1366 3272 1645 3428 
Q 1925 3584 2291 3584 
Q 2894 3584 3203 3211 
Q 3513 2838 3513 2113 
z
" transform="scale(0.015625)"/>
     </defs>
     <use xlink:href="#DejaVuSans-4c"/>
     <use xlink:href="#DejaVuSans-6f" x="53.962891"/>
     <use xlink:href="#DejaVuSans-63" x="115.144531"/>
     <use xlink:href="#DejaVuSans-61" x="170.125"/>
     <use xlink:href="#DejaVuSans-6c" x="231.404297"/>
     <use xlink:href="#DejaVuSans-69" x="259.1875"/>
     <use xlink:href="#DejaVuSans-7a" x="286.970703"/>
     <use xlink:href="#DejaVuSans-61" x="339.460938"/>
     <use xlink:href="#DejaVuSans-74" x="400.740234"/>
     <use xlink:href="#DejaVuSans-69" x="439.949219"/>
     <use xlink:href="#DejaVuSans-6f" x="467.732422"/>
     <use xlink:href="#DejaVuSans-6e" x="528.914062"/>
     <use xlink:href="#DejaVuSans-20" x="592.292969"/>
     <use xlink:href="#DejaVuSans-4c" x="624.080078"/>
     <use xlink:href="#DejaVuSans-6f" x="678.042969"/>
     <use xlink:href="#DejaVuSans-73" x="739.224609"/>
     <use xlink:href="#DejaVuSans-73" x="791.324219"/>
    </g>
   </g>
  </g>
  <g id="axes_2">
   <g id="patch_7">
    <path d="M 340.49 246.04 
L 566.73 246.04 
L 566.73 50.64 
L 340.49 50.64 
z
" style="fill: #ffffff"/>
   </g>
   <g id="matplotlib.axis_3">
    <g id="xtick_7">
     <g id="line2d_18">
      <g>
       <use xlink:href="#m6a58f3351b" x="350.773636" y="246.04" style="stroke: #000000; stroke-width: 0.8"/>
      </g>
     </g>
     <g id="text_16">
      <!-- 0 -->
      <g transform="translate(347.592386 260.638438)scale(0.1 -0.1)">
       <use xlink:href="#DejaVuSans-30"/>
      </g>
     </g>
    </g>
    <g id="xtick_8">
     <g id="line2d_19">
      <g>
       <use xlink:href="#m6a58f3351b" x="387.500909" y="246.04" style="stroke: #000000; stroke-width: 0.8"/>
      </g>
     </g>
     <g id="text_17">
      <!-- 10 -->
      <g transform="translate(381.138409 260.638438)scale(0.1 -0.1)">
       <use xlink:href="#DejaVuSans-31"/>
       <use xlink:href="#DejaVuSans-30" x="63.623047"/>
      </g>
     </g>
    </g>
    <g id="xtick_9">
     <g id="line2d_20">
      <g>
       <use xlink:href="#m6a58f3351b" x="424.228182" y="246.04" style="stroke: #000000; stroke-width: 0.8"/>
      </g>
     </g>
     <g id="text_18">
      <!-- 20 -->
      <g transform="translate(417.865682 260.638438)scale(0.1 -0.1)">
       <use xlink:href="#DejaVuSans-32"/>
       <use xlink:href="#DejaVuSans-30" x="63.623047"/>
      </g>
     </g>
    </g>
    <g id="xtick_10">
     <g id="line2d_21">
      <g>
       <use xlink:href="#m6a58f3351b" x="460.955455" y="246.04" style="stroke: #000000; stroke-width: 0.8"/>
      </g>
     </g>
     <g id="text_19">
      <!-- 30 -->
      <g transform="translate(454.592955 260.638438)scale(0.1 -0.1)">
       <use xlink:href="#DejaVuSans-33"/>
       <use xlink:href="#DejaVuSans-30" x="63.623047"/>
      </g>
     </g>
    </g>
    <g id="xtick_11">
     <g id="line2d_22">
      <g>
       <use xlink:href="#m6a58f3351b" x="497.682727" y="246.04" style="stroke: #000000; stroke-width: 0.8"/>
      </g>
     </g>
     <g id="text_20">
      <!-- 40 -->
      <g transform="translate(491.320227 260.638438)scale(0.1 -0.1)">
       <use xlink:href="#DejaVuSans-34"/>
       <use xlink:href="#DejaVuSans-30" x="63.623047"/>
      </g>
     </g>
    </g>
    <g id="xtick_12">
     <g id="line2d_23">
      <g>
       <use xlink:href="#m6a58f3351b" x="534.41" y="246.04" style="stroke: #000000; stroke-width: 0.8"/>
      </g>
     </g>
     <g id="text_21">
      <!-- 50 -->
      <g transform="translate(528.0475 260.638438)scale(0.1 -0.1)">
       <use xlink:href="#DejaVuSans-35"/>
       <use xlink:href="#DejaVuSans-30" x="63.623047"/>
      </g>
     </g>
    </g>
    <g id="text_22">
     <!-- Epochs -->
     <g transform="translate(435.694375 274.316562)scale(0.1 -0.1)">
      <use xlink:href="#DejaVuSans-45"/>
      <use xlink:href="#DejaVuSans-70" x="63.183594"/>
      <use xlink:href="#DejaVuSans-6f" x="126.660156"/>
      <use xlink:href="#DejaVuSans-63" x="187.841797"/>
      <use xlink:href="#DejaVuSans-68" x="242.822266"/>
      <use xlink:href="#DejaVuSans-73" x="306.201172"/>
     </g>
    </g>
   </g>
   <g id="matplotlib.axis_4">
    <g id="ytick_7">
     <g id="line2d_24">
      <g>
       <use xlink:href="#m777cbc18d6" x="340.49" y="235.293956" style="stroke: #000000; stroke-width: 0.8"/>
      </g>
     </g>
     <g id="text_23">
      <!-- 0.01 -->
      <g transform="translate(311.224375 239.093175)scale(0.1 -0.1)">
       <use xlink:href="#DejaVuSans-30"/>
       <use xlink:href="#DejaVuSans-2e" x="63.623047"/>
       <use xlink:href="#DejaVuSans-30" x="95.410156"/>
       <use xlink:href="#DejaVuSans-31" x="159.033203"/>
      </g>
     </g>
    </g>
    <g id="ytick_8">
     <g id="line2d_25">
      <g>
       <use xlink:href="#m777cbc18d6" x="340.49" y="202.26849" style="stroke: #000000; stroke-width: 0.8"/>
      </g>
     </g>
     <g id="text_24">
      <!-- 0.02 -->
      <g transform="translate(311.224375 206.067709)scale(0.1 -0.1)">
       <use xlink:href="#DejaVuSans-30"/>
       <use xlink:href="#DejaVuSans-2e" x="63.623047"/>
       <use xlink:href="#DejaVuSans-30" x="95.410156"/>
       <use xlink:href="#DejaVuSans-32" x="159.033203"/>
      </g>
     </g>
    </g>
    <g id="ytick_9">
     <g id="line2d_26">
      <g>
       <use xlink:href="#m777cbc18d6" x="340.49" y="169.243025" style="stroke: #000000; stroke-width: 0.8"/>
      </g>
     </g>
     <g id="text_25">
      <!-- 0.03 -->
      <g transform="translate(311.224375 173.042244)scale(0.1 -0.1)">
       <use xlink:href="#DejaVuSans-30"/>
       <use xlink:href="#DejaVuSans-2e" x="63.623047"/>
       <use xlink:href="#DejaVuSans-30" x="95.410156"/>
       <use xlink:href="#DejaVuSans-33" x="159.033203"/>
      </g>
     </g>
    </g>
    <g id="ytick_10">
     <g id="line2d_27">
      <g>
       <use xlink:href="#m777cbc18d6" x="340.49" y="136.21756" style="stroke: #000000; stroke-width: 0.8"/>
      </g>
     </g>
     <g id="text_26">
      <!-- 0.04 -->
      <g transform="translate(311.224375 140.016778)scale(0.1 -0.1)">
       <use xlink:href="#DejaVuSans-30"/>
       <use xlink:href="#DejaVuSans-2e" x="63.623047"/>
       <use xlink:href="#DejaVuSans-30" x="95.410156"/>
       <use xlink:href="#DejaVuSans-34" x="159.033203"/>
      </g>
     </g>
    </g>
    <g id="ytick_11">
     <g id="line2d_28">
      <g>
       <use xlink:href="#m777cbc18d6" x="340.49" y="103.192094" style="stroke: #000000; stroke-width: 0.8"/>
      </g>
     </g>
     <g id="text_27">
      <!-- 0.05 -->
      <g transform="translate(311.224375 106.991313)scale(0.1 -0.1)">
       <use xlink:href="#DejaVuSans-30"/>
       <use xlink:href="#DejaVuSans-2e" x="63.623047"/>
       <use xlink:href="#DejaVuSans-30" x="95.410156"/>
       <use xlink:href="#DejaVuSans-35" x="159.033203"/>
      </g>
     </g>
    </g>
    <g id="ytick_12">
     <g id="line2d_29">
      <g>
       <use xlink:href="#m777cbc18d6" x="340.49" y="70.166629" style="stroke: #000000; stroke-width: 0.8"/>
      </g>
     </g>
     <g id="text_28">
      <!-- 0.06 -->
      <g transform="translate(311.224375 73.965848)scale(0.1 -0.1)">
       <use xlink:href="#DejaVuSans-30"/>
       <use xlink:href="#DejaVuSans-2e" x="63.623047"/>
       <use xlink:href="#DejaVuSans-30" x="95.410156"/>
       <use xlink:href="#DejaVuSans-36" x="159.033203"/>
      </g>
     </g>
    </g>
    <g id="text_29">
     <!-- Loss Value -->
     <g transform="translate(305.144687 174.6275)rotate(-90)scale(0.1 -0.1)">
      <use xlink:href="#DejaVuSans-4c"/>
      <use xlink:href="#DejaVuSans-6f" x="53.962891"/>
      <use xlink:href="#DejaVuSans-73" x="115.144531"/>
      <use xlink:href="#DejaVuSans-73" x="167.244141"/>
      <use xlink:href="#DejaVuSans-20" x="219.34375"/>
      <use xlink:href="#DejaVuSans-56" x="251.130859"/>
      <use xlink:href="#DejaVuSans-61" x="311.789062"/>
      <use xlink:href="#DejaVuSans-6c" x="373.068359"/>
      <use xlink:href="#DejaVuSans-75" x="400.851562"/>
      <use xlink:href="#DejaVuSans-65" x="464.230469"/>
     </g>
    </g>
   </g>
   <g id="line2d_30">
    <path d="M 350.773636 61.293024 
L 354.446364 80.885082 
L 358.119091 98.971518 
L 361.791818 112.844724 
L 365.464545 125.019398 
L 369.137273 136.140066 
L 372.81 144.527943 
L 376.482727 153.352132 
L 380.155455 159.805125 
L 383.828182 165.219515 
L 387.500909 171.171459 
L 391.173636 174.336508 
L 394.846364 177.963607 
L 398.519091 182.105411 
L 402.191818 185.102606 
L 405.864545 187.770345 
L 409.537273 189.914939 
L 413.21 193.622616 
L 416.882727 196.55856 
L 420.555455 197.81661 
L 424.228182 200.77978 
L 427.900909 203.376101 
L 431.573636 205.056192 
L 435.246364 205.929092 
L 438.919091 208.565662 
L 442.591818 209.58402 
L 446.264545 211.645624 
L 449.937273 213.312741 
L 453.61 214.820989 
L 457.282727 216.749085 
L 460.955455 217.452897 
L 464.628182 218.532991 
L 468.300909 220.302053 
L 471.973636 222.407939 
L 475.646364 222.881171 
L 479.319091 224.480176 
L 482.991818 225.266623 
L 486.664545 226.893967 
L 490.337273 228.078842 
L 494.01 228.586317 
L 497.682727 229.39578 
L 501.355455 230.816023 
L 505.028182 231.651931 
L 508.700909 232.310594 
L 512.373636 232.825645 
L 516.046364 233.514345 
L 519.719091 233.947891 
L 523.391818 234.211999 
L 527.064545 235.544592 
L 530.737273 235.523342 
L 534.41 235.809702 
L 538.082727 236.564857 
L 541.755455 236.477983 
L 545.428182 236.719173 
L 549.100909 236.633621 
L 552.773636 237.158182 
L 556.446364 236.837463 
" clip-path="url(#paf8ab8d6e1)" style="fill: none; stroke: #1f77b4; stroke-width: 1.5; stroke-linecap: square"/>
   </g>
   <g id="line2d_31">
    <path d="M 350.773636 62.611703 
L 354.446364 83.929507 
L 358.119091 98.565496 
L 361.791818 111.800315 
L 365.464545 122.317548 
L 369.137273 132.616515 
L 372.81 140.657572 
L 376.482727 148.134884 
L 380.155455 154.171902 
L 383.828182 159.502595 
L 387.500909 164.464927 
L 391.173636 168.694168 
L 394.846364 172.22547 
L 398.519091 175.227057 
L 402.191818 179.330255 
L 405.864545 182.498964 
L 409.537273 184.157512 
L 413.21 187.1539 
L 416.882727 190.189369 
L 420.555455 191.695778 
L 424.228182 193.488994 
L 427.900909 195.674581 
L 431.573636 197.285184 
L 435.246364 199.649613 
L 438.919091 201.708825 
L 442.591818 203.63725 
L 446.264545 204.67886 
L 449.937273 206.500299 
L 453.61 207.467083 
L 457.282727 209.425748 
L 460.955455 210.370018 
L 464.628182 211.809616 
L 468.300909 213.752042 
L 471.973636 214.424958 
L 475.646364 215.489796 
L 479.319091 217.023487 
L 482.991818 217.925099 
L 486.664545 219.706255 
L 490.337273 220.183877 
L 494.01 220.896999 
L 497.682727 221.701331 
L 501.355455 222.911504 
L 505.028182 223.315367 
L 508.700909 224.282895 
L 512.373636 225.057193 
L 516.046364 226.09025 
L 519.719091 226.110522 
L 523.391818 226.699852 
L 527.064545 227.380211 
L 530.737273 227.615034 
L 534.41 227.995687 
L 538.082727 228.441604 
L 541.755455 228.705665 
L 545.428182 228.721511 
L 549.100909 228.621735 
L 552.773636 229.288253 
L 556.446364 228.945508 
" clip-path="url(#paf8ab8d6e1)" style="fill: none; stroke: #ff7f0e; stroke-width: 1.5; stroke-linecap: square"/>
   </g>
   <g id="line2d_32">
    <path d="M 350.773636 59.521818 
L 354.446364 78.211984 
L 358.119091 96.199787 
L 361.791818 110.778801 
L 365.464545 122.845418 
L 369.137273 134.116921 
L 372.81 142.733731 
L 376.482727 151.531395 
L 380.155455 156.257768 
L 383.828182 162.759714 
L 387.500909 168.074057 
L 391.173636 171.116163 
L 394.846364 175.726064 
L 398.519091 179.000431 
L 402.191818 182.706804 
L 405.864545 185.897425 
L 409.537273 187.269412 
L 413.21 190.298563 
L 416.882727 192.418508 
L 420.555455 195.023552 
L 424.228182 197.03915 
L 427.900909 198.981182 
L 431.573636 200.069298 
L 435.246364 203.492137 
L 438.919091 205.142749 
L 442.591818 205.808763 
L 446.264545 207.495792 
L 449.937273 209.074389 
L 453.61 211.086363 
L 457.282727 212.401025 
L 460.955455 214.03723 
L 464.628182 214.869488 
L 468.300909 217.385197 
L 471.973636 218.175729 
L 475.646364 219.647167 
L 479.319091 220.661265 
L 482.991818 221.66588 
L 486.664545 222.466993 
L 490.337273 223.921884 
L 494.01 224.453829 
L 497.682727 226.212178 
L 501.355455 226.707455 
L 505.028182 227.20776 
L 508.700909 227.832617 
L 512.373636 228.728576 
L 516.046364 229.62097 
L 519.719091 230.143144 
L 523.391818 230.291629 
L 527.064545 230.890665 
L 530.737273 231.589146 
L 534.41 231.56208 
L 538.082727 232.149419 
L 541.755455 232.434525 
L 545.428182 232.686163 
L 549.100909 233.125553 
L 552.773636 233.028292 
L 556.446364 233.058284 
" clip-path="url(#paf8ab8d6e1)" style="fill: none; stroke: #2ca02c; stroke-width: 1.5; stroke-linecap: square"/>
   </g>
   <g id="line2d_33">
    <path d="M 350.773636 60.366145 
L 354.446364 80.924771 
L 358.119091 98.108294 
L 361.791818 110.965326 
L 365.464545 122.624568 
L 369.137273 133.388107 
L 372.81 140.9969 
L 376.482727 149.241571 
L 380.155455 156.634385 
L 383.828182 161.729638 
L 387.500909 166.298361 
L 391.173636 171.247275 
L 394.846364 174.703129 
L 398.519091 177.635592 
L 402.191818 181.614069 
L 405.864545 184.02448 
L 409.537273 186.612361 
L 413.21 189.30021 
L 416.882727 192.095409 
L 420.555455 194.728466 
L 424.228182 196.734517 
L 427.900909 199.286689 
L 431.573636 200.031669 
L 435.246364 202.387166 
L 438.919091 204.070117 
L 442.591818 205.490725 
L 446.264545 207.956463 
L 449.937273 209.799856 
L 453.61 211.536614 
L 457.282727 212.544699 
L 460.955455 214.102042 
L 464.628182 214.64801 
L 468.300909 217.372522 
L 471.973636 218.911479 
L 475.646364 219.112361 
L 479.319091 220.708659 
L 482.991818 222.128071 
L 486.664545 222.748164 
L 490.337273 224.341436 
L 494.01 224.340156 
L 497.682727 225.320611 
L 501.355455 226.658197 
L 505.028182 227.310241 
L 508.700909 228.289647 
L 512.373636 229.260337 
L 516.046364 229.887532 
L 519.719091 230.099167 
L 523.391818 230.587207 
L 527.064545 230.915499 
L 530.737273 231.966069 
L 534.41 232.188573 
L 538.082727 231.946821 
L 541.755455 232.670129 
L 545.428182 232.388955 
L 549.100909 233.01224 
L 552.773636 232.963745 
L 556.446364 233.461498 
" clip-path="url(#paf8ab8d6e1)" style="fill: none; stroke: #d62728; stroke-width: 1.5; stroke-linecap: square"/>
   </g>
   <g id="line2d_34">
    <path d="M 350.773636 60.954176 
L 354.446364 78.223106 
L 358.119091 95.951415 
L 361.791818 110.478486 
L 365.464545 123.727072 
L 369.137273 135.102965 
L 372.81 143.603217 
L 376.482727 150.952172 
L 380.155455 157.732128 
L 383.828182 164.512244 
L 387.500909 168.04007 
L 391.173636 172.641242 
L 394.846364 176.975028 
L 398.519091 180.185229 
L 402.191818 183.588987 
L 405.864545 187.019675 
L 409.537273 190.206993 
L 413.21 191.682306 
L 416.882727 195.060781 
L 420.555455 196.256621 
L 424.228182 199.698985 
L 427.900909 200.824489 
L 431.573636 202.502998 
L 435.246364 204.463694 
L 438.919091 206.649454 
L 442.591818 207.954304 
L 446.264545 209.708833 
L 449.937273 212.054568 
L 453.61 212.94682 
L 457.282727 214.324726 
L 460.955455 216.18319 
L 464.628182 218.099955 
L 468.300909 218.573397 
L 471.973636 220.672719 
L 475.646364 221.472214 
L 479.319091 222.797828 
L 482.991818 223.476843 
L 486.664545 225.125844 
L 490.337273 226.02494 
L 494.01 227.1294 
L 497.682727 227.922241 
L 501.355455 228.189311 
L 505.028182 229.409301 
L 508.700909 229.615536 
L 512.373636 230.945595 
L 516.046364 231.671265 
L 519.719091 231.975136 
L 523.391818 232.208163 
L 527.064545 233.094987 
L 530.737273 233.900436 
L 534.41 233.64033 
L 538.082727 234.53413 
L 541.755455 234.927984 
L 545.428182 234.642885 
L 549.100909 235.301726 
L 552.773636 234.989068 
L 556.446364 235.15971 
" clip-path="url(#paf8ab8d6e1)" style="fill: none; stroke: #9467bd; stroke-width: 1.5; stroke-linecap: square"/>
   </g>
   <g id="patch_8">
    <path d="M 340.49 246.04 
L 340.49 50.64 
" style="fill: none; stroke: #000000; stroke-width: 0.8; stroke-linejoin: miter; stroke-linecap: square"/>
   </g>
   <g id="patch_9">
    <path d="M 566.73 246.04 
L 566.73 50.64 
" style="fill: none; stroke: #000000; stroke-width: 0.8; stroke-linejoin: miter; stroke-linecap: square"/>
   </g>
   <g id="patch_10">
    <path d="M 340.49 246.04 
L 566.73 246.04 
" style="fill: none; stroke: #000000; stroke-width: 0.8; stroke-linejoin: miter; stroke-linecap: square"/>
   </g>
   <g id="patch_11">
    <path d="M 340.49 50.64 
L 566.73 50.64 
" style="fill: none; stroke: #000000; stroke-width: 0.8; stroke-linejoin: miter; stroke-linecap: square"/>
   </g>
   <g id="text_30">
    <!-- Classification Loss -->
    <g transform="translate(398.843125 44.64)scale(0.12 -0.12)">
     <defs>
      <path id="DejaVuSans-43" d="M 4122 4306 
L 4122 3641 
Q 3803 3938 3442 4084 
Q 3081 4231 2675 4231 
Q 1875 4231 1450 3742 
Q 1025 3253 1025 2328 
Q 1025 1406 1450 917 
Q 1875 428 2675 428 
Q 3081 428 3442 575 
Q 3803 722 4122 1019 
L 4122 359 
Q 3791 134 3420 21 
Q 3050 -91 2638 -91 
Q 1578 -91 968 557 
Q 359 1206 359 2328 
Q 359 3453 968 4101 
Q 1578 4750 2638 4750 
Q 3056 4750 3426 4639 
Q 3797 4528 4122 4306 
z
" transform="scale(0.015625)"/>
      <path id="DejaVuSans-66" d="M 2375 4863 
L 2375 4384 
L 1825 4384 
Q 1516 4384 1395 4259 
Q 1275 4134 1275 3809 
L 1275 3500 
L 2222 3500 
L 2222 3053 
L 1275 3053 
L 1275 0 
L 697 0 
L 697 3053 
L 147 3053 
L 147 3500 
L 697 3500 
L 697 3744 
Q 697 4328 969 4595 
Q 1241 4863 1831 4863 
L 2375 4863 
z
" transform="scale(0.015625)"/>
     </defs>
     <use xlink:href="#DejaVuSans-43"/>
     <use xlink:href="#DejaVuSans-6c" x="69.824219"/>
     <use xlink:href="#DejaVuSans-61" x="97.607422"/>
     <use xlink:href="#DejaVuSans-73" x="158.886719"/>
     <use xlink:href="#DejaVuSans-73" x="210.986328"/>
     <use xlink:href="#DejaVuSans-69" x="263.085938"/>
     <use xlink:href="#DejaVuSans-66" x="290.869141"/>
     <use xlink:href="#DejaVuSans-69" x="326.074219"/>
     <use xlink:href="#DejaVuSans-63" x="353.857422"/>
     <use xlink:href="#DejaVuSans-61" x="408.837891"/>
     <use xlink:href="#DejaVuSans-74" x="470.117188"/>
     <use xlink:href="#DejaVuSans-69" x="509.326172"/>
     <use xlink:href="#DejaVuSans-6f" x="537.109375"/>
     <use xlink:href="#DejaVuSans-6e" x="598.291016"/>
     <use xlink:href="#DejaVuSans-20" x="661.669922"/>
     <use xlink:href="#DejaVuSans-4c" x="693.457031"/>
     <use xlink:href="#DejaVuSans-6f" x="747.419922"/>
     <use xlink:href="#DejaVuSans-73" x="808.601562"/>
     <use xlink:href="#DejaVuSans-73" x="860.701172"/>
    </g>
   </g>
  </g>
  <g id="axes_3">
   <g id="patch_12">
    <path d="M 626.96 246.04 
L 853.2 246.04 
L 853.2 50.64 
L 626.96 50.64 
z
" style="fill: #ffffff"/>
   </g>
   <g id="matplotlib.axis_5">
    <g id="xtick_13">
     <g id="line2d_35">
      <g>
       <use xlink:href="#m6a58f3351b" x="637.243636" y="246.04" style="stroke: #000000; stroke-width: 0.8"/>
      </g>
     </g>
     <g id="text_31">
      <!-- 0 -->
      <g transform="translate(634.062386 260.638438)scale(0.1 -0.1)">
       <use xlink:href="#DejaVuSans-30"/>
      </g>
     </g>
    </g>
    <g id="xtick_14">
     <g id="line2d_36">
      <g>
       <use xlink:href="#m6a58f3351b" x="673.970909" y="246.04" style="stroke: #000000; stroke-width: 0.8"/>
      </g>
     </g>
     <g id="text_32">
      <!-- 10 -->
      <g transform="translate(667.608409 260.638438)scale(0.1 -0.1)">
       <use xlink:href="#DejaVuSans-31"/>
       <use xlink:href="#DejaVuSans-30" x="63.623047"/>
      </g>
     </g>
    </g>
    <g id="xtick_15">
     <g id="line2d_37">
      <g>
       <use xlink:href="#m6a58f3351b" x="710.698182" y="246.04" style="stroke: #000000; stroke-width: 0.8"/>
      </g>
     </g>
     <g id="text_33">
      <!-- 20 -->
      <g transform="translate(704.335682 260.638438)scale(0.1 -0.1)">
       <use xlink:href="#DejaVuSans-32"/>
       <use xlink:href="#DejaVuSans-30" x="63.623047"/>
      </g>
     </g>
    </g>
    <g id="xtick_16">
     <g id="line2d_38">
      <g>
       <use xlink:href="#m6a58f3351b" x="747.425455" y="246.04" style="stroke: #000000; stroke-width: 0.8"/>
      </g>
     </g>
     <g id="text_34">
      <!-- 30 -->
      <g transform="translate(741.062955 260.638438)scale(0.1 -0.1)">
       <use xlink:href="#DejaVuSans-33"/>
       <use xlink:href="#DejaVuSans-30" x="63.623047"/>
      </g>
     </g>
    </g>
    <g id="xtick_17">
     <g id="line2d_39">
      <g>
       <use xlink:href="#m6a58f3351b" x="784.152727" y="246.04" style="stroke: #000000; stroke-width: 0.8"/>
      </g>
     </g>
     <g id="text_35">
      <!-- 40 -->
      <g transform="translate(777.790227 260.638438)scale(0.1 -0.1)">
       <use xlink:href="#DejaVuSans-34"/>
       <use xlink:href="#DejaVuSans-30" x="63.623047"/>
      </g>
     </g>
    </g>
    <g id="xtick_18">
     <g id="line2d_40">
      <g>
       <use xlink:href="#m6a58f3351b" x="820.88" y="246.04" style="stroke: #000000; stroke-width: 0.8"/>
      </g>
     </g>
     <g id="text_36">
      <!-- 50 -->
      <g transform="translate(814.5175 260.638438)scale(0.1 -0.1)">
       <use xlink:href="#DejaVuSans-35"/>
       <use xlink:href="#DejaVuSans-30" x="63.623047"/>
      </g>
     </g>
    </g>
    <g id="text_37">
     <!-- Epochs -->
     <g transform="translate(722.164375 274.316562)scale(0.1 -0.1)">
      <use xlink:href="#DejaVuSans-45"/>
      <use xlink:href="#DejaVuSans-70" x="63.183594"/>
      <use xlink:href="#DejaVuSans-6f" x="126.660156"/>
      <use xlink:href="#DejaVuSans-63" x="187.841797"/>
      <use xlink:href="#DejaVuSans-68" x="242.822266"/>
      <use xlink:href="#DejaVuSans-73" x="306.201172"/>
     </g>
    </g>
   </g>
   <g id="matplotlib.axis_6">
    <g id="ytick_13">
     <g id="line2d_41">
      <g>
       <use xlink:href="#m777cbc18d6" x="626.96" y="236.635399" style="stroke: #000000; stroke-width: 0.8"/>
      </g>
     </g>
     <g id="text_38">
      <!-- 0.025 -->
      <g transform="translate(591.331875 240.434618)scale(0.1 -0.1)">
       <use xlink:href="#DejaVuSans-30"/>
       <use xlink:href="#DejaVuSans-2e" x="63.623047"/>
       <use xlink:href="#DejaVuSans-30" x="95.410156"/>
       <use xlink:href="#DejaVuSans-32" x="159.033203"/>
       <use xlink:href="#DejaVuSans-35" x="222.65625"/>
      </g>
     </g>
    </g>
    <g id="ytick_14">
     <g id="line2d_42">
      <g>
       <use xlink:href="#m777cbc18d6" x="626.96" y="208.740999" style="stroke: #000000; stroke-width: 0.8"/>
      </g>
     </g>
     <g id="text_39">
      <!-- 0.030 -->
      <g transform="translate(591.331875 212.540218)scale(0.1 -0.1)">
       <use xlink:href="#DejaVuSans-30"/>
       <use xlink:href="#DejaVuSans-2e" x="63.623047"/>
       <use xlink:href="#DejaVuSans-30" x="95.410156"/>
       <use xlink:href="#DejaVuSans-33" x="159.033203"/>
       <use xlink:href="#DejaVuSans-30" x="222.65625"/>
      </g>
     </g>
    </g>
    <g id="ytick_15">
     <g id="line2d_43">
      <g>
       <use xlink:href="#m777cbc18d6" x="626.96" y="180.846599" style="stroke: #000000; stroke-width: 0.8"/>
      </g>
     </g>
     <g id="text_40">
      <!-- 0.035 -->
      <g transform="translate(591.331875 184.645818)scale(0.1 -0.1)">
       <use xlink:href="#DejaVuSans-30"/>
       <use xlink:href="#DejaVuSans-2e" x="63.623047"/>
       <use xlink:href="#DejaVuSans-30" x="95.410156"/>
       <use xlink:href="#DejaVuSans-33" x="159.033203"/>
       <use xlink:href="#DejaVuSans-35" x="222.65625"/>
      </g>
     </g>
    </g>
    <g id="ytick_16">
     <g id="line2d_44">
      <g>
       <use xlink:href="#m777cbc18d6" x="626.96" y="152.952199" style="stroke: #000000; stroke-width: 0.8"/>
      </g>
     </g>
     <g id="text_41">
      <!-- 0.040 -->
      <g transform="translate(591.331875 156.751417)scale(0.1 -0.1)">
       <use xlink:href="#DejaVuSans-30"/>
       <use xlink:href="#DejaVuSans-2e" x="63.623047"/>
       <use xlink:href="#DejaVuSans-30" x="95.410156"/>
       <use xlink:href="#DejaVuSans-34" x="159.033203"/>
       <use xlink:href="#DejaVuSans-30" x="222.65625"/>
      </g>
     </g>
    </g>
    <g id="ytick_17">
     <g id="line2d_45">
      <g>
       <use xlink:href="#m777cbc18d6" x="626.96" y="125.057799" style="stroke: #000000; stroke-width: 0.8"/>
      </g>
     </g>
     <g id="text_42">
      <!-- 0.045 -->
      <g transform="translate(591.331875 128.857017)scale(0.1 -0.1)">
       <use xlink:href="#DejaVuSans-30"/>
       <use xlink:href="#DejaVuSans-2e" x="63.623047"/>
       <use xlink:href="#DejaVuSans-30" x="95.410156"/>
       <use xlink:href="#DejaVuSans-34" x="159.033203"/>
       <use xlink:href="#DejaVuSans-35" x="222.65625"/>
      </g>
     </g>
    </g>
    <g id="ytick_18">
     <g id="line2d_46">
      <g>
       <use xlink:href="#m777cbc18d6" x="626.96" y="97.163398" style="stroke: #000000; stroke-width: 0.8"/>
      </g>
     </g>
     <g id="text_43">
      <!-- 0.050 -->
      <g transform="translate(591.331875 100.962617)scale(0.1 -0.1)">
       <use xlink:href="#DejaVuSans-30"/>
       <use xlink:href="#DejaVuSans-2e" x="63.623047"/>
       <use xlink:href="#DejaVuSans-30" x="95.410156"/>
       <use xlink:href="#DejaVuSans-35" x="159.033203"/>
       <use xlink:href="#DejaVuSans-30" x="222.65625"/>
      </g>
     </g>
    </g>
    <g id="ytick_19">
     <g id="line2d_47">
      <g>
       <use xlink:href="#m777cbc18d6" x="626.96" y="69.268998" style="stroke: #000000; stroke-width: 0.8"/>
      </g>
     </g>
     <g id="text_44">
      <!-- 0.055 -->
      <g transform="translate(591.331875 73.068217)scale(0.1 -0.1)">
       <use xlink:href="#DejaVuSans-30"/>
       <use xlink:href="#DejaVuSans-2e" x="63.623047"/>
       <use xlink:href="#DejaVuSans-30" x="95.410156"/>
       <use xlink:href="#DejaVuSans-35" x="159.033203"/>
       <use xlink:href="#DejaVuSans-35" x="222.65625"/>
      </g>
     </g>
    </g>
    <g id="text_45">
     <!-- Loss Value -->
     <g transform="translate(585.252187 174.6275)rotate(-90)scale(0.1 -0.1)">
      <use xlink:href="#DejaVuSans-4c"/>
      <use xlink:href="#DejaVuSans-6f" x="53.962891"/>
      <use xlink:href="#DejaVuSans-73" x="115.144531"/>
      <use xlink:href="#DejaVuSans-73" x="167.244141"/>
      <use xlink:href="#DejaVuSans-20" x="219.34375"/>
      <use xlink:href="#DejaVuSans-56" x="251.130859"/>
      <use xlink:href="#DejaVuSans-61" x="311.789062"/>
      <use xlink:href="#DejaVuSans-6c" x="373.068359"/>
      <use xlink:href="#DejaVuSans-75" x="400.851562"/>
      <use xlink:href="#DejaVuSans-65" x="464.230469"/>
     </g>
    </g>
   </g>
   <g id="line2d_48">
    <path d="M 637.243636 135.954662 
L 640.916364 148.600151 
L 644.589091 154.185921 
L 648.261818 158.415812 
L 651.934545 164.056699 
L 655.607273 168.833265 
L 659.28 171.84197 
L 662.952727 175.51334 
L 666.625455 178.221961 
L 670.298182 180.582135 
L 673.970909 182.277753 
L 677.643636 186.529944 
L 681.316364 187.005375 
L 684.989091 188.170197 
L 688.661818 190.918243 
L 692.334545 192.733634 
L 696.007273 193.510188 
L 699.68 194.473187 
L 703.352727 197.449118 
L 707.025455 199.489152 
L 710.698182 199.786493 
L 714.370909 200.492552 
L 718.043636 202.471536 
L 721.716364 203.853415 
L 725.389091 205.822755 
L 729.061818 207.820734 
L 732.734545 208.724896 
L 736.407273 208.555712 
L 740.08 210.888494 
L 743.752727 212.036222 
L 747.425455 213.291367 
L 751.098182 215.166498 
L 754.770909 215.222279 
L 758.443636 216.811822 
L 762.116364 219.810614 
L 765.789091 221.242684 
L 769.461818 221.182881 
L 773.134545 222.330744 
L 776.807273 225.776795 
L 780.48 224.803436 
L 784.152727 226.308319 
L 787.825455 227.641067 
L 791.498182 228.572071 
L 795.170909 229.153224 
L 798.843636 230.916824 
L 802.516364 231.558508 
L 806.189091 231.480114 
L 809.861818 232.203392 
L 813.534545 234.188112 
L 817.207273 232.368086 
L 820.88 235.449636 
L 824.552727 233.521644 
L 828.225455 236.233497 
L 831.898182 235.925036 
L 835.570909 235.362826 
L 839.243636 235.710016 
L 842.916364 237.158182 
" clip-path="url(#pc93abe82c5)" style="fill: none; stroke: #1f77b4; stroke-width: 1.5; stroke-linecap: square"/>
   </g>
   <g id="line2d_49">
    <path d="M 637.243636 59.521818 
L 640.916364 66.139046 
L 644.589091 72.155107 
L 648.261818 76.183175 
L 651.934545 83.585998 
L 655.607273 83.863804 
L 659.28 89.563985 
L 662.952727 93.523697 
L 666.625455 97.323859 
L 670.298182 100.513169 
L 673.970909 103.141006 
L 677.643636 109.568881 
L 681.316364 110.99403 
L 684.989091 111.397074 
L 688.661818 112.243875 
L 692.334545 118.36198 
L 696.007273 119.15381 
L 699.68 122.834907 
L 703.352727 121.896785 
L 707.025455 122.925936 
L 710.698182 125.845275 
L 714.370909 124.84017 
L 718.043636 128.914085 
L 721.716364 131.660095 
L 725.389091 132.74484 
L 729.061818 136.498448 
L 732.734545 134.575132 
L 736.407273 138.656217 
L 740.08 139.326238 
L 743.752727 138.006085 
L 747.425455 141.660579 
L 751.098182 143.040151 
L 754.770909 144.292594 
L 758.443636 143.336308 
L 762.116364 147.698815 
L 765.789091 148.029347 
L 769.461818 150.260313 
L 773.134545 150.700247 
L 776.807273 155.61851 
L 780.48 154.671577 
L 784.152727 157.789767 
L 787.825455 158.990461 
L 791.498182 158.863498 
L 795.170909 158.582803 
L 798.843636 160.737621 
L 802.516364 161.359259 
L 806.189091 163.601719 
L 809.861818 162.050375 
L 813.534545 163.857598 
L 817.207273 165.651915 
L 820.88 165.355384 
L 824.552727 165.074835 
L 828.225455 167.00875 
L 831.898182 167.84649 
L 835.570909 167.891236 
L 839.243636 168.39464 
L 842.916364 166.590119 
" clip-path="url(#pc93abe82c5)" style="fill: none; stroke: #ff7f0e; stroke-width: 1.5; stroke-linecap: square"/>
   </g>
   <g id="line2d_50">
    <path d="M 637.243636 135.527635 
L 640.916364 149.361014 
L 644.589091 155.243378 
L 648.261818 160.320257 
L 651.934545 162.742843 
L 655.607273 166.796702 
L 659.28 169.203887 
L 662.952727 172.283317 
L 666.625455 176.251364 
L 670.298182 178.605698 
L 673.970909 180.540715 
L 677.643636 181.944436 
L 681.316364 182.369843 
L 684.989091 186.610125 
L 688.661818 187.495001 
L 692.334545 188.196072 
L 696.007273 189.607109 
L 699.68 191.014967 
L 703.352727 193.257094 
L 707.025455 194.912393 
L 710.698182 196.020769 
L 714.370909 195.516616 
L 718.043636 198.440236 
L 721.716364 199.490253 
L 725.389091 199.060316 
L 729.061818 200.368229 
L 732.734545 202.38272 
L 736.407273 203.599561 
L 740.08 205.57763 
L 743.752727 205.173423 
L 747.425455 207.697585 
L 751.098182 207.612541 
L 754.770909 208.832022 
L 758.443636 210.042296 
L 762.116364 209.368513 
L 765.789091 212.431992 
L 769.461818 212.173909 
L 773.134545 214.12124 
L 776.807273 213.732537 
L 780.48 215.891833 
L 784.152727 217.073385 
L 787.825455 217.39575 
L 791.498182 218.272935 
L 795.170909 219.028645 
L 798.843636 219.956001 
L 802.516364 220.683716 
L 806.189091 220.844264 
L 809.861818 222.150659 
L 813.534545 222.551282 
L 817.207273 221.253563 
L 820.88 222.352316 
L 824.552727 223.377487 
L 828.225455 222.663946 
L 831.898182 223.573325 
L 835.570909 225.267281 
L 839.243636 224.6724 
L 842.916364 225.466361 
" clip-path="url(#pc93abe82c5)" style="fill: none; stroke: #2ca02c; stroke-width: 1.5; stroke-linecap: square"/>
   </g>
   <g id="line2d_51">
    <path d="M 637.243636 139.239719 
L 640.916364 145.77527 
L 644.589091 154.155703 
L 648.261818 158.393013 
L 651.934545 160.788539 
L 655.607273 166.25593 
L 659.28 169.641721 
L 662.952727 172.43921 
L 666.625455 174.17203 
L 670.298182 175.999287 
L 673.970909 178.187981 
L 677.643636 179.740155 
L 681.316364 182.906313 
L 684.989091 185.375639 
L 688.661818 188.356786 
L 692.334545 189.545758 
L 696.007273 188.549611 
L 699.68 190.065145 
L 703.352727 192.127104 
L 707.025455 193.518855 
L 710.698182 195.967606 
L 714.370909 196.017755 
L 718.043636 197.012967 
L 721.716364 199.267273 
L 725.389091 199.434451 
L 729.061818 200.426712 
L 732.734545 203.586905 
L 736.407273 203.978112 
L 740.08 204.680618 
L 743.752727 206.112261 
L 747.425455 206.589053 
L 751.098182 208.575363 
L 754.770909 209.157067 
L 758.443636 210.305252 
L 762.116364 212.301496 
L 765.789091 213.716991 
L 769.461818 213.648802 
L 773.134545 215.543792 
L 776.807273 216.899183 
L 780.48 217.265825 
L 784.152727 218.349801 
L 787.825455 218.936577 
L 791.498182 220.147069 
L 795.170909 220.9859 
L 798.843636 221.146344 
L 802.516364 222.562494 
L 806.189091 223.33614 
L 809.861818 224.755314 
L 813.534545 224.000259 
L 817.207273 223.674185 
L 820.88 225.429066 
L 824.552727 225.253844 
L 828.225455 227.032699 
L 831.898182 225.76072 
L 835.570909 227.077132 
L 839.243636 225.854492 
L 842.916364 226.39435 
" clip-path="url(#pc93abe82c5)" style="fill: none; stroke: #d62728; stroke-width: 1.5; stroke-linecap: square"/>
   </g>
   <g id="line2d_52">
    <path d="M 637.243636 134.582094 
L 640.916364 147.975228 
L 644.589091 156.574817 
L 648.261818 158.392119 
L 651.934545 163.157317 
L 655.607273 169.380583 
L 659.28 172.823445 
L 662.952727 173.344827 
L 666.625455 177.048099 
L 670.298182 181.242285 
L 673.970909 180.804014 
L 677.643636 183.780402 
L 681.316364 185.598266 
L 684.989091 187.175982 
L 688.661818 189.378622 
L 692.334545 188.841756 
L 696.007273 192.095618 
L 699.68 195.937845 
L 703.352727 193.875968 
L 707.025455 196.434578 
L 710.698182 197.37804 
L 714.370909 199.812119 
L 718.043636 201.170222 
L 721.716364 203.106715 
L 725.389091 202.575721 
L 729.061818 204.613977 
L 732.734545 207.524016 
L 736.407273 207.796885 
L 740.08 209.166877 
L 743.752727 210.549431 
L 747.425455 210.373275 
L 751.098182 213.400342 
L 754.770909 213.14042 
L 758.443636 214.16982 
L 762.116364 216.17551 
L 765.789091 216.438861 
L 769.461818 218.779759 
L 773.134545 220.758389 
L 776.807273 221.120251 
L 780.48 223.065504 
L 784.152727 222.96718 
L 787.825455 224.490113 
L 791.498182 225.76151 
L 795.170909 225.563365 
L 798.843636 226.292264 
L 802.516364 227.685065 
L 806.189091 230.323886 
L 809.861818 229.745632 
L 813.534545 230.610119 
L 817.207273 229.987441 
L 820.88 230.512793 
L 824.552727 232.420106 
L 828.225455 232.108622 
L 831.898182 231.351561 
L 835.570909 232.067253 
L 839.243636 232.097565 
L 842.916364 233.093972 
" clip-path="url(#pc93abe82c5)" style="fill: none; stroke: #9467bd; stroke-width: 1.5; stroke-linecap: square"/>
   </g>
   <g id="patch_13">
    <path d="M 626.96 246.04 
L 626.96 50.64 
" style="fill: none; stroke: #000000; stroke-width: 0.8; stroke-linejoin: miter; stroke-linecap: square"/>
   </g>
   <g id="patch_14">
    <path d="M 853.2 246.04 
L 853.2 50.64 
" style="fill: none; stroke: #000000; stroke-width: 0.8; stroke-linejoin: miter; stroke-linecap: square"/>
   </g>
   <g id="patch_15">
    <path d="M 626.96 246.04 
L 853.2 246.04 
" style="fill: none; stroke: #000000; stroke-width: 0.8; stroke-linejoin: miter; stroke-linecap: square"/>
   </g>
   <g id="patch_16">
    <path d="M 626.96 50.64 
L 853.2 50.64 
" style="fill: none; stroke: #000000; stroke-width: 0.8; stroke-linejoin: miter; stroke-linecap: square"/>
   </g>
   <g id="text_46">
    <!-- Objectness Loss -->
    <g transform="translate(691.724687 44.64)scale(0.12 -0.12)">
     <defs>
      <path id="DejaVuSans-4f" d="M 2522 4238 
Q 1834 4238 1429 3725 
Q 1025 3213 1025 2328 
Q 1025 1447 1429 934 
Q 1834 422 2522 422 
Q 3209 422 3611 934 
Q 4013 1447 4013 2328 
Q 4013 3213 3611 3725 
Q 3209 4238 2522 4238 
z
M 2522 4750 
Q 3503 4750 4090 4092 
Q 4678 3434 4678 2328 
Q 4678 1225 4090 567 
Q 3503 -91 2522 -91 
Q 1538 -91 948 565 
Q 359 1222 359 2328 
Q 359 3434 948 4092 
Q 1538 4750 2522 4750 
z
" transform="scale(0.015625)"/>
      <path id="DejaVuSans-62" d="M 3116 1747 
Q 3116 2381 2855 2742 
Q 2594 3103 2138 3103 
Q 1681 3103 1420 2742 
Q 1159 2381 1159 1747 
Q 1159 1113 1420 752 
Q 1681 391 2138 391 
Q 2594 391 2855 752 
Q 3116 1113 3116 1747 
z
M 1159 2969 
Q 1341 3281 1617 3432 
Q 1894 3584 2278 3584 
Q 2916 3584 3314 3078 
Q 3713 2572 3713 1747 
Q 3713 922 3314 415 
Q 2916 -91 2278 -91 
Q 1894 -91 1617 61 
Q 1341 213 1159 525 
L 1159 0 
L 581 0 
L 581 4863 
L 1159 4863 
L 1159 2969 
z
" transform="scale(0.015625)"/>
      <path id="DejaVuSans-6a" d="M 603 3500 
L 1178 3500 
L 1178 -63 
Q 1178 -731 923 -1031 
Q 669 -1331 103 -1331 
L -116 -1331 
L -116 -844 
L 38 -844 
Q 366 -844 484 -692 
Q 603 -541 603 -63 
L 603 3500 
z
M 603 4863 
L 1178 4863 
L 1178 4134 
L 603 4134 
L 603 4863 
z
" transform="scale(0.015625)"/>
     </defs>
     <use xlink:href="#DejaVuSans-4f"/>
     <use xlink:href="#DejaVuSans-62" x="78.710938"/>
     <use xlink:href="#DejaVuSans-6a" x="142.1875"/>
     <use xlink:href="#DejaVuSans-65" x="169.970703"/>
     <use xlink:href="#DejaVuSans-63" x="231.494141"/>
     <use xlink:href="#DejaVuSans-74" x="286.474609"/>
     <use xlink:href="#DejaVuSans-6e" x="325.683594"/>
     <use xlink:href="#DejaVuSans-65" x="389.0625"/>
     <use xlink:href="#DejaVuSans-73" x="450.585938"/>
     <use xlink:href="#DejaVuSans-73" x="502.685547"/>
     <use xlink:href="#DejaVuSans-20" x="554.785156"/>
     <use xlink:href="#DejaVuSans-4c" x="586.572266"/>
     <use xlink:href="#DejaVuSans-6f" x="640.535156"/>
     <use xlink:href="#DejaVuSans-73" x="701.716797"/>
     <use xlink:href="#DejaVuSans-73" x="753.816406"/>
    </g>
   </g>
   <g id="legend_1">
    <g id="patch_17">
     <path d="M 740.684375 132.030625 
L 846.2 132.030625 
Q 848.2 132.030625 848.2 130.030625 
L 848.2 57.64 
Q 848.2 55.64 846.2 55.64 
L 740.684375 55.64 
Q 738.684375 55.64 738.684375 57.64 
L 738.684375 130.030625 
Q 738.684375 132.030625 740.684375 132.030625 
z
" style="fill: #ffffff; opacity: 0.8; stroke: #cccccc; stroke-linejoin: miter"/>
    </g>
    <g id="line2d_53">
     <path d="M 742.684375 63.738437 
L 752.684375 63.738437 
L 762.684375 63.738437 
" style="fill: none; stroke: #1f77b4; stroke-width: 1.5; stroke-linecap: square"/>
    </g>
    <g id="text_47">
     <!-- YOLOv3 -->
     <g transform="translate(770.684375 67.238437)scale(0.1 -0.1)">
      <defs>
       <path id="DejaVuSans-59" d="M -13 4666 
L 666 4666 
L 1959 2747 
L 3244 4666 
L 3922 4666 
L 2272 2222 
L 2272 0 
L 1638 0 
L 1638 2222 
L -13 4666 
z
" transform="scale(0.015625)"/>
       <path id="DejaVuSans-76" d="M 191 3500 
L 800 3500 
L 1894 563 
L 2988 3500 
L 3597 3500 
L 2284 0 
L 1503 0 
L 191 3500 
z
" transform="scale(0.015625)"/>
      </defs>
      <use xlink:href="#DejaVuSans-59"/>
      <use xlink:href="#DejaVuSans-4f" x="55.583984"/>
      <use xlink:href="#DejaVuSans-4c" x="134.294922"/>
      <use xlink:href="#DejaVuSans-4f" x="186.382812"/>
      <use xlink:href="#DejaVuSans-76" x="265.09375"/>
      <use xlink:href="#DejaVuSans-33" x="324.273438"/>
     </g>
    </g>
    <g id="line2d_54">
     <path d="M 742.684375 78.416562 
L 752.684375 78.416562 
L 762.684375 78.416562 
" style="fill: none; stroke: #ff7f0e; stroke-width: 1.5; stroke-linecap: square"/>
    </g>
    <g id="text_48">
     <!-- YOLOv3 MSA 4 -->
     <g transform="translate(770.684375 81.916562)scale(0.1 -0.1)">
      <defs>
       <path id="DejaVuSans-4d" d="M 628 4666 
L 1569 4666 
L 2759 1491 
L 3956 4666 
L 4897 4666 
L 4897 0 
L 4281 0 
L 4281 4097 
L 3078 897 
L 2444 897 
L 1241 4097 
L 1241 0 
L 628 0 
L 628 4666 
z
" transform="scale(0.015625)"/>
       <path id="DejaVuSans-53" d="M 3425 4513 
L 3425 3897 
Q 3066 4069 2747 4153 
Q 2428 4238 2131 4238 
Q 1616 4238 1336 4038 
Q 1056 3838 1056 3469 
Q 1056 3159 1242 3001 
Q 1428 2844 1947 2747 
L 2328 2669 
Q 3034 2534 3370 2195 
Q 3706 1856 3706 1288 
Q 3706 609 3251 259 
Q 2797 -91 1919 -91 
Q 1588 -91 1214 -16 
Q 841 59 441 206 
L 441 856 
Q 825 641 1194 531 
Q 1563 422 1919 422 
Q 2459 422 2753 634 
Q 3047 847 3047 1241 
Q 3047 1584 2836 1778 
Q 2625 1972 2144 2069 
L 1759 2144 
Q 1053 2284 737 2584 
Q 422 2884 422 3419 
Q 422 4038 858 4394 
Q 1294 4750 2059 4750 
Q 2388 4750 2728 4690 
Q 3069 4631 3425 4513 
z
" transform="scale(0.015625)"/>
       <path id="DejaVuSans-41" d="M 2188 4044 
L 1331 1722 
L 3047 1722 
L 2188 4044 
z
M 1831 4666 
L 2547 4666 
L 4325 0 
L 3669 0 
L 3244 1197 
L 1141 1197 
L 716 0 
L 50 0 
L 1831 4666 
z
" transform="scale(0.015625)"/>
      </defs>
      <use xlink:href="#DejaVuSans-59"/>
      <use xlink:href="#DejaVuSans-4f" x="55.583984"/>
      <use xlink:href="#DejaVuSans-4c" x="134.294922"/>
      <use xlink:href="#DejaVuSans-4f" x="186.382812"/>
      <use xlink:href="#DejaVuSans-76" x="265.09375"/>
      <use xlink:href="#DejaVuSans-33" x="324.273438"/>
      <use xlink:href="#DejaVuSans-20" x="387.896484"/>
      <use xlink:href="#DejaVuSans-4d" x="419.683594"/>
      <use xlink:href="#DejaVuSans-53" x="505.962891"/>
      <use xlink:href="#DejaVuSans-41" x="571.314453"/>
      <use xlink:href="#DejaVuSans-20" x="639.722656"/>
      <use xlink:href="#DejaVuSans-34" x="671.509766"/>
     </g>
    </g>
    <g id="line2d_55">
     <path d="M 742.684375 93.094687 
L 752.684375 93.094687 
L 762.684375 93.094687 
" style="fill: none; stroke: #2ca02c; stroke-width: 1.5; stroke-linecap: square"/>
    </g>
    <g id="text_49">
     <!-- YOLOv3 MSA 3 -->
     <g transform="translate(770.684375 96.594687)scale(0.1 -0.1)">
      <use xlink:href="#DejaVuSans-59"/>
      <use xlink:href="#DejaVuSans-4f" x="55.583984"/>
      <use xlink:href="#DejaVuSans-4c" x="134.294922"/>
      <use xlink:href="#DejaVuSans-4f" x="186.382812"/>
      <use xlink:href="#DejaVuSans-76" x="265.09375"/>
      <use xlink:href="#DejaVuSans-33" x="324.273438"/>
      <use xlink:href="#DejaVuSans-20" x="387.896484"/>
      <use xlink:href="#DejaVuSans-4d" x="419.683594"/>
      <use xlink:href="#DejaVuSans-53" x="505.962891"/>
      <use xlink:href="#DejaVuSans-41" x="571.314453"/>
      <use xlink:href="#DejaVuSans-20" x="639.722656"/>
      <use xlink:href="#DejaVuSans-33" x="671.509766"/>
     </g>
    </g>
    <g id="line2d_56">
     <path d="M 742.684375 107.772812 
L 752.684375 107.772812 
L 762.684375 107.772812 
" style="fill: none; stroke: #d62728; stroke-width: 1.5; stroke-linecap: square"/>
    </g>
    <g id="text_50">
     <!-- YOLOv3 MSA 2 -->
     <g transform="translate(770.684375 111.272812)scale(0.1 -0.1)">
      <use xlink:href="#DejaVuSans-59"/>
      <use xlink:href="#DejaVuSans-4f" x="55.583984"/>
      <use xlink:href="#DejaVuSans-4c" x="134.294922"/>
      <use xlink:href="#DejaVuSans-4f" x="186.382812"/>
      <use xlink:href="#DejaVuSans-76" x="265.09375"/>
      <use xlink:href="#DejaVuSans-33" x="324.273438"/>
      <use xlink:href="#DejaVuSans-20" x="387.896484"/>
      <use xlink:href="#DejaVuSans-4d" x="419.683594"/>
      <use xlink:href="#DejaVuSans-53" x="505.962891"/>
      <use xlink:href="#DejaVuSans-41" x="571.314453"/>
      <use xlink:href="#DejaVuSans-20" x="639.722656"/>
      <use xlink:href="#DejaVuSans-32" x="671.509766"/>
     </g>
    </g>
    <g id="line2d_57">
     <path d="M 742.684375 122.450937 
L 752.684375 122.450937 
L 762.684375 122.450937 
" style="fill: none; stroke: #9467bd; stroke-width: 1.5; stroke-linecap: square"/>
    </g>
    <g id="text_51">
     <!-- YOLOv3 MSA 1 -->
     <g transform="translate(770.684375 125.950937)scale(0.1 -0.1)">
      <use xlink:href="#DejaVuSans-59"/>
      <use xlink:href="#DejaVuSans-4f" x="55.583984"/>
      <use xlink:href="#DejaVuSans-4c" x="134.294922"/>
      <use xlink:href="#DejaVuSans-4f" x="186.382812"/>
      <use xlink:href="#DejaVuSans-76" x="265.09375"/>
      <use xlink:href="#DejaVuSans-33" x="324.273438"/>
      <use xlink:href="#DejaVuSans-20" x="387.896484"/>
      <use xlink:href="#DejaVuSans-4d" x="419.683594"/>
      <use xlink:href="#DejaVuSans-53" x="505.962891"/>
      <use xlink:href="#DejaVuSans-41" x="571.314453"/>
      <use xlink:href="#DejaVuSans-20" x="639.722656"/>
      <use xlink:href="#DejaVuSans-31" x="671.509766"/>
     </g>
    </g>
   </g>
  </g>
  <g id="text_52">
   <!-- All Training Losses for VOC2007+2012 -->
   <g transform="translate(302.609062 14.878125)scale(0.12 -0.12)">
    <defs>
     <path id="DejaVuSans-Bold-41" d="M 3419 850 
L 1538 850 
L 1241 0 
L 31 0 
L 1759 4666 
L 3194 4666 
L 4922 0 
L 3713 0 
L 3419 850 
z
M 1838 1716 
L 3116 1716 
L 2478 3572 
L 1838 1716 
z
" transform="scale(0.015625)"/>
     <path id="DejaVuSans-Bold-6c" d="M 538 4863 
L 1656 4863 
L 1656 0 
L 538 0 
L 538 4863 
z
" transform="scale(0.015625)"/>
     <path id="DejaVuSans-Bold-20" transform="scale(0.015625)"/>
     <path id="DejaVuSans-Bold-54" d="M 31 4666 
L 4331 4666 
L 4331 3756 
L 2784 3756 
L 2784 0 
L 1581 0 
L 1581 3756 
L 31 3756 
L 31 4666 
z
" transform="scale(0.015625)"/>
     <path id="DejaVuSans-Bold-72" d="M 3138 2547 
Q 2991 2616 2845 2648 
Q 2700 2681 2553 2681 
Q 2122 2681 1889 2404 
Q 1656 2128 1656 1613 
L 1656 0 
L 538 0 
L 538 3500 
L 1656 3500 
L 1656 2925 
Q 1872 3269 2151 3426 
Q 2431 3584 2822 3584 
Q 2878 3584 2943 3579 
Q 3009 3575 3134 3559 
L 3138 2547 
z
" transform="scale(0.015625)"/>
     <path id="DejaVuSans-Bold-61" d="M 2106 1575 
Q 1756 1575 1579 1456 
Q 1403 1338 1403 1106 
Q 1403 894 1545 773 
Q 1688 653 1941 653 
Q 2256 653 2472 879 
Q 2688 1106 2688 1447 
L 2688 1575 
L 2106 1575 
z
M 3816 1997 
L 3816 0 
L 2688 0 
L 2688 519 
Q 2463 200 2181 54 
Q 1900 -91 1497 -91 
Q 953 -91 614 226 
Q 275 544 275 1050 
Q 275 1666 698 1953 
Q 1122 2241 2028 2241 
L 2688 2241 
L 2688 2328 
Q 2688 2594 2478 2717 
Q 2269 2841 1825 2841 
Q 1466 2841 1156 2769 
Q 847 2697 581 2553 
L 581 3406 
Q 941 3494 1303 3539 
Q 1666 3584 2028 3584 
Q 2975 3584 3395 3211 
Q 3816 2838 3816 1997 
z
" transform="scale(0.015625)"/>
     <path id="DejaVuSans-Bold-69" d="M 538 3500 
L 1656 3500 
L 1656 0 
L 538 0 
L 538 3500 
z
M 538 4863 
L 1656 4863 
L 1656 3950 
L 538 3950 
L 538 4863 
z
" transform="scale(0.015625)"/>
     <path id="DejaVuSans-Bold-6e" d="M 4056 2131 
L 4056 0 
L 2931 0 
L 2931 347 
L 2931 1631 
Q 2931 2084 2911 2256 
Q 2891 2428 2841 2509 
Q 2775 2619 2662 2680 
Q 2550 2741 2406 2741 
Q 2056 2741 1856 2470 
Q 1656 2200 1656 1722 
L 1656 0 
L 538 0 
L 538 3500 
L 1656 3500 
L 1656 2988 
Q 1909 3294 2193 3439 
Q 2478 3584 2822 3584 
Q 3428 3584 3742 3212 
Q 4056 2841 4056 2131 
z
" transform="scale(0.015625)"/>
     <path id="DejaVuSans-Bold-67" d="M 2919 594 
Q 2688 288 2409 144 
Q 2131 0 1766 0 
Q 1125 0 706 504 
Q 288 1009 288 1791 
Q 288 2575 706 3076 
Q 1125 3578 1766 3578 
Q 2131 3578 2409 3434 
Q 2688 3291 2919 2981 
L 2919 3500 
L 4044 3500 
L 4044 353 
Q 4044 -491 3511 -936 
Q 2978 -1381 1966 -1381 
Q 1638 -1381 1331 -1331 
Q 1025 -1281 716 -1178 
L 716 -306 
Q 1009 -475 1290 -558 
Q 1572 -641 1856 -641 
Q 2406 -641 2662 -400 
Q 2919 -159 2919 353 
L 2919 594 
z
M 2181 2772 
Q 1834 2772 1640 2515 
Q 1447 2259 1447 1791 
Q 1447 1309 1634 1061 
Q 1822 813 2181 813 
Q 2531 813 2725 1069 
Q 2919 1325 2919 1791 
Q 2919 2259 2725 2515 
Q 2531 2772 2181 2772 
z
" transform="scale(0.015625)"/>
     <path id="DejaVuSans-Bold-4c" d="M 588 4666 
L 1791 4666 
L 1791 909 
L 3903 909 
L 3903 0 
L 588 0 
L 588 4666 
z
" transform="scale(0.015625)"/>
     <path id="DejaVuSans-Bold-6f" d="M 2203 2784 
Q 1831 2784 1636 2517 
Q 1441 2250 1441 1747 
Q 1441 1244 1636 976 
Q 1831 709 2203 709 
Q 2569 709 2762 976 
Q 2956 1244 2956 1747 
Q 2956 2250 2762 2517 
Q 2569 2784 2203 2784 
z
M 2203 3584 
Q 3106 3584 3614 3096 
Q 4122 2609 4122 1747 
Q 4122 884 3614 396 
Q 3106 -91 2203 -91 
Q 1297 -91 786 396 
Q 275 884 275 1747 
Q 275 2609 786 3096 
Q 1297 3584 2203 3584 
z
" transform="scale(0.015625)"/>
     <path id="DejaVuSans-Bold-73" d="M 3272 3391 
L 3272 2541 
Q 2913 2691 2578 2766 
Q 2244 2841 1947 2841 
Q 1628 2841 1473 2761 
Q 1319 2681 1319 2516 
Q 1319 2381 1436 2309 
Q 1553 2238 1856 2203 
L 2053 2175 
Q 2913 2066 3209 1816 
Q 3506 1566 3506 1031 
Q 3506 472 3093 190 
Q 2681 -91 1863 -91 
Q 1516 -91 1145 -36 
Q 775 19 384 128 
L 384 978 
Q 719 816 1070 734 
Q 1422 653 1784 653 
Q 2113 653 2278 743 
Q 2444 834 2444 1013 
Q 2444 1163 2330 1236 
Q 2216 1309 1875 1350 
L 1678 1375 
Q 931 1469 631 1722 
Q 331 1975 331 2491 
Q 331 3047 712 3315 
Q 1094 3584 1881 3584 
Q 2191 3584 2531 3537 
Q 2872 3491 3272 3391 
z
" transform="scale(0.015625)"/>
     <path id="DejaVuSans-Bold-65" d="M 4031 1759 
L 4031 1441 
L 1416 1441 
Q 1456 1047 1700 850 
Q 1944 653 2381 653 
Q 2734 653 3104 758 
Q 3475 863 3866 1075 
L 3866 213 
Q 3469 63 3072 -14 
Q 2675 -91 2278 -91 
Q 1328 -91 801 392 
Q 275 875 275 1747 
Q 275 2603 792 3093 
Q 1309 3584 2216 3584 
Q 3041 3584 3536 3087 
Q 4031 2591 4031 1759 
z
M 2881 2131 
Q 2881 2450 2695 2645 
Q 2509 2841 2209 2841 
Q 1884 2841 1681 2658 
Q 1478 2475 1428 2131 
L 2881 2131 
z
" transform="scale(0.015625)"/>
     <path id="DejaVuSans-Bold-66" d="M 2841 4863 
L 2841 4128 
L 2222 4128 
Q 1984 4128 1890 4042 
Q 1797 3956 1797 3744 
L 1797 3500 
L 2753 3500 
L 2753 2700 
L 1797 2700 
L 1797 0 
L 678 0 
L 678 2700 
L 122 2700 
L 122 3500 
L 678 3500 
L 678 3744 
Q 678 4316 997 4589 
Q 1316 4863 1984 4863 
L 2841 4863 
z
" transform="scale(0.015625)"/>
     <path id="DejaVuSans-Bold-56" d="M 31 4666 
L 1241 4666 
L 2478 1222 
L 3713 4666 
L 4922 4666 
L 3194 0 
L 1759 0 
L 31 4666 
z
" transform="scale(0.015625)"/>
     <path id="DejaVuSans-Bold-4f" d="M 2719 3878 
Q 2169 3878 1866 3472 
Q 1563 3066 1563 2328 
Q 1563 1594 1866 1187 
Q 2169 781 2719 781 
Q 3272 781 3575 1187 
Q 3878 1594 3878 2328 
Q 3878 3066 3575 3472 
Q 3272 3878 2719 3878 
z
M 2719 4750 
Q 3844 4750 4481 4106 
Q 5119 3463 5119 2328 
Q 5119 1197 4481 553 
Q 3844 -91 2719 -91 
Q 1597 -91 958 553 
Q 319 1197 319 2328 
Q 319 3463 958 4106 
Q 1597 4750 2719 4750 
z
" transform="scale(0.015625)"/>
     <path id="DejaVuSans-Bold-43" d="M 4288 256 
Q 3956 84 3597 -3 
Q 3238 -91 2847 -91 
Q 1681 -91 1000 561 
Q 319 1213 319 2328 
Q 319 3447 1000 4098 
Q 1681 4750 2847 4750 
Q 3238 4750 3597 4662 
Q 3956 4575 4288 4403 
L 4288 3438 
Q 3953 3666 3628 3772 
Q 3303 3878 2944 3878 
Q 2300 3878 1931 3465 
Q 1563 3053 1563 2328 
Q 1563 1606 1931 1193 
Q 2300 781 2944 781 
Q 3303 781 3628 887 
Q 3953 994 4288 1222 
L 4288 256 
z
" transform="scale(0.015625)"/>
     <path id="DejaVuSans-Bold-32" d="M 1844 884 
L 3897 884 
L 3897 0 
L 506 0 
L 506 884 
L 2209 2388 
Q 2438 2594 2547 2791 
Q 2656 2988 2656 3200 
Q 2656 3528 2436 3728 
Q 2216 3928 1850 3928 
Q 1569 3928 1234 3808 
Q 900 3688 519 3450 
L 519 4475 
Q 925 4609 1322 4679 
Q 1719 4750 2100 4750 
Q 2938 4750 3402 4381 
Q 3866 4013 3866 3353 
Q 3866 2972 3669 2642 
Q 3472 2313 2841 1759 
L 1844 884 
z
" transform="scale(0.015625)"/>
     <path id="DejaVuSans-Bold-30" d="M 2944 2338 
Q 2944 3213 2780 3570 
Q 2616 3928 2228 3928 
Q 1841 3928 1675 3570 
Q 1509 3213 1509 2338 
Q 1509 1453 1675 1090 
Q 1841 728 2228 728 
Q 2613 728 2778 1090 
Q 2944 1453 2944 2338 
z
M 4147 2328 
Q 4147 1169 3647 539 
Q 3147 -91 2228 -91 
Q 1306 -91 806 539 
Q 306 1169 306 2328 
Q 306 3491 806 4120 
Q 1306 4750 2228 4750 
Q 3147 4750 3647 4120 
Q 4147 3491 4147 2328 
z
" transform="scale(0.015625)"/>
     <path id="DejaVuSans-Bold-37" d="M 428 4666 
L 3944 4666 
L 3944 3988 
L 2125 0 
L 953 0 
L 2675 3781 
L 428 3781 
L 428 4666 
z
" transform="scale(0.015625)"/>
     <path id="DejaVuSans-Bold-2b" d="M 3053 4013 
L 3053 2375 
L 4684 2375 
L 4684 1638 
L 3053 1638 
L 3053 0 
L 2309 0 
L 2309 1638 
L 678 1638 
L 678 2375 
L 2309 2375 
L 2309 4013 
L 3053 4013 
z
" transform="scale(0.015625)"/>
     <path id="DejaVuSans-Bold-31" d="M 750 831 
L 1813 831 
L 1813 3847 
L 722 3622 
L 722 4441 
L 1806 4666 
L 2950 4666 
L 2950 831 
L 4013 831 
L 4013 0 
L 750 0 
L 750 831 
z
" transform="scale(0.015625)"/>
    </defs>
    <use xlink:href="#DejaVuSans-Bold-41"/>
    <use xlink:href="#DejaVuSans-Bold-6c" x="77.392578"/>
    <use xlink:href="#DejaVuSans-Bold-6c" x="111.669922"/>
    <use xlink:href="#DejaVuSans-Bold-20" x="145.947266"/>
    <use xlink:href="#DejaVuSans-Bold-54" x="180.761719"/>
    <use xlink:href="#DejaVuSans-Bold-72" x="237.974609"/>
    <use xlink:href="#DejaVuSans-Bold-61" x="287.291016"/>
    <use xlink:href="#DejaVuSans-Bold-69" x="354.771484"/>
    <use xlink:href="#DejaVuSans-Bold-6e" x="389.048828"/>
    <use xlink:href="#DejaVuSans-Bold-69" x="460.240234"/>
    <use xlink:href="#DejaVuSans-Bold-6e" x="494.517578"/>
    <use xlink:href="#DejaVuSans-Bold-67" x="565.708984"/>
    <use xlink:href="#DejaVuSans-Bold-20" x="637.291016"/>
    <use xlink:href="#DejaVuSans-Bold-4c" x="672.105469"/>
    <use xlink:href="#DejaVuSans-Bold-6f" x="735.826172"/>
    <use xlink:href="#DejaVuSans-Bold-73" x="804.527344"/>
    <use xlink:href="#DejaVuSans-Bold-73" x="864.048828"/>
    <use xlink:href="#DejaVuSans-Bold-65" x="923.570312"/>
    <use xlink:href="#DejaVuSans-Bold-73" x="991.392578"/>
    <use xlink:href="#DejaVuSans-Bold-20" x="1050.914062"/>
    <use xlink:href="#DejaVuSans-Bold-66" x="1085.728516"/>
    <use xlink:href="#DejaVuSans-Bold-6f" x="1129.234375"/>
    <use xlink:href="#DejaVuSans-Bold-72" x="1197.935547"/>
    <use xlink:href="#DejaVuSans-Bold-20" x="1247.251953"/>
    <use xlink:href="#DejaVuSans-Bold-56" x="1282.066406"/>
    <use xlink:href="#DejaVuSans-Bold-4f" x="1357.708984"/>
    <use xlink:href="#DejaVuSans-Bold-43" x="1442.71875"/>
    <use xlink:href="#DejaVuSans-Bold-32" x="1516.107422"/>
    <use xlink:href="#DejaVuSans-Bold-30" x="1585.6875"/>
    <use xlink:href="#DejaVuSans-Bold-30" x="1655.267578"/>
    <use xlink:href="#DejaVuSans-Bold-37" x="1724.847656"/>
    <use xlink:href="#DejaVuSans-Bold-2b" x="1794.427734"/>
    <use xlink:href="#DejaVuSans-Bold-32" x="1878.216797"/>
    <use xlink:href="#DejaVuSans-Bold-30" x="1947.796875"/>
    <use xlink:href="#DejaVuSans-Bold-31" x="2017.376953"/>
    <use xlink:href="#DejaVuSans-Bold-32" x="2086.957031"/>
   </g>
  </g>
 </g>
 <defs>
  <clipPath id="p4827146849">
   <rect x="54.02" y="50.64" width="226.24" height="195.4"/>
  </clipPath>
  <clipPath id="paf8ab8d6e1">
   <rect x="340.49" y="50.64" width="226.24" height="195.4"/>
  </clipPath>
  <clipPath id="pc93abe82c5">
   <rect x="626.96" y="50.64" width="226.24" height="195.4"/>
  </clipPath>
 </defs>
</svg>
